<svg width="64" height="64" viewBox="0 0 64 64" fill="none" xmlns="http://www.w3.org/2000/svg">
<g clip-path="url(#clip0_17_10)">
<path d="M31.9965 63.9931C49.6678 63.9931 63.9931 49.6678 63.9931 31.9965C63.9931 14.3253 49.6678 0 31.9965 0C14.3253 0 0 14.3253 0 31.9965C0 49.6678 14.3253 63.9931 31.9965 63.9931Z" fill="#0F172A"/>
<g clip-path="url(#clip1_17_10)">
<path d="M13.8905 14.4166C11.1431 14.4166 9.4947 16.3948 9.4947 20.4609V29.5823C9.4947 32.6594 7.29678 33.7583 5.97803 33.0989C7.29678 32.4396 9.4947 33.5385 9.4947 36.6156V45.737C9.4947 49.8031 11.1431 51.7813 13.8905 51.7813" stroke="white" stroke-width="2.08802" stroke-linecap="round" stroke-linejoin="round"/>
</g>
<path d="M18.495 44.134C18.327 43.87 18.039 43.702 17.631 43.63C17.223 43.558 16.599 43.546 15.759 43.594C15.423 43.642 15.075 43.618 14.715 43.522C14.355 43.426 14.067 43.282 13.851 43.09C13.635 42.898 13.551 42.706 13.599 42.514C13.623 42.226 13.959 41.914 14.607 41.578C15.255 41.242 16.095 41.062 17.127 41.038L18.639 41.002L18.999 40.282C19.095 40.018 19.167 39.73 19.215 39.418C19.287 39.106 19.407 38.674 19.575 38.122C19.671 37.786 19.815 37.318 20.007 36.718C20.199 36.118 20.403 35.482 20.619 34.81C20.835 34.114 21.027 33.49 21.195 32.938C21.363 32.386 21.471 32.002 21.519 31.786C21.615 31.57 21.747 31.21 21.915 30.706C22.083 30.178 22.239 29.65 22.383 29.122C22.551 28.57 22.659 28.174 22.707 27.934C23.331 26.038 23.739 24.718 23.931 23.974C24.123 23.206 24.171 22.81 24.075 22.786C23.979 22.786 23.751 22.798 23.391 22.822C23.031 22.846 22.635 22.882 22.203 22.93C21.771 22.954 21.387 22.99 21.051 23.038C20.715 23.086 20.511 23.134 20.439 23.182C20.319 23.35 20.115 23.326 19.827 23.11C19.539 22.87 19.359 22.63 19.287 22.39C19.263 22.174 19.263 21.97 19.287 21.778C19.311 21.586 19.383 21.454 19.503 21.382C19.671 21.238 20.019 21.082 20.547 20.914C21.075 20.722 21.663 20.554 22.311 20.41C22.983 20.266 23.595 20.158 24.147 20.086C24.555 20.038 24.963 19.954 25.371 19.834C25.779 19.69 26.103 19.522 26.343 19.33C26.559 19.258 26.763 19.198 26.955 19.15C27.171 19.102 27.387 19.09 27.603 19.114C27.795 19.234 28.119 19.294 28.575 19.294C29.055 19.294 29.559 19.282 30.087 19.258C31.431 19.138 32.367 19.186 32.895 19.402C33.447 19.594 33.807 19.858 33.975 20.194C34.095 20.65 34.071 21.034 33.903 21.346C33.735 21.634 33.447 21.766 33.039 21.742C32.823 21.79 32.523 21.838 32.139 21.886C31.755 21.91 31.251 21.934 30.627 21.958C29.043 22.102 28.191 22.27 28.071 22.462C27.975 22.558 27.891 22.654 27.819 22.75C27.771 22.846 27.699 22.954 27.603 23.074C27.627 23.17 27.567 23.458 27.423 23.938C27.303 24.394 27.147 24.886 26.955 25.414C26.859 25.726 26.715 26.17 26.523 26.746C26.331 27.322 26.127 27.922 25.911 28.546C25.719 29.146 25.539 29.698 25.371 30.202C25.203 30.682 25.083 31.006 25.011 31.174C24.915 31.39 24.831 31.63 24.759 31.894C24.711 32.134 24.675 32.314 24.651 32.434C24.315 33.61 24.027 34.594 23.787 35.386C23.571 36.178 23.379 36.874 23.211 37.474C23.043 38.05 22.887 38.614 22.743 39.166C22.599 39.694 22.431 40.294 22.239 40.966C22.239 40.966 22.443 40.954 22.851 40.93C23.259 40.882 23.775 40.834 24.399 40.786C25.527 40.666 26.295 40.594 26.703 40.57C27.111 40.546 27.351 40.582 27.423 40.678C27.495 40.75 27.567 40.894 27.639 41.11C28.119 41.758 28.083 42.298 27.531 42.73C27.003 43.162 26.067 43.366 24.723 43.342C23.475 43.39 22.551 43.426 21.951 43.45C21.375 43.498 21.003 43.558 20.835 43.63C20.667 43.702 20.583 43.822 20.583 43.99C20.607 44.374 20.367 44.602 19.863 44.674C19.383 44.77 18.927 44.59 18.495 44.134ZM35.3135 44.566C34.8815 44.59 34.5215 44.386 34.2335 43.954C33.9455 43.522 33.8135 43.162 33.8375 42.874C33.8615 42.49 33.9695 41.938 34.1615 41.218C34.3535 40.498 34.5695 39.766 34.8095 39.022C35.0495 38.278 35.2655 37.69 35.4575 37.258C35.5535 36.874 35.6375 36.538 35.7095 36.25C35.8055 35.938 35.8655 35.734 35.8895 35.638C35.9615 35.542 36.0695 35.29 36.2135 34.882C36.3815 34.474 36.5135 34.078 36.6095 33.694C36.6575 33.502 36.7535 33.142 36.8975 32.614C37.0655 32.062 37.2575 31.426 37.4735 30.706C37.7135 29.986 37.9415 29.278 38.1575 28.582C38.3975 27.886 38.6015 27.274 38.7695 26.746C38.9375 26.218 39.0455 25.87 39.0935 25.702C39.2855 25.414 39.4295 25.138 39.5255 24.874C39.6215 24.61 39.6815 24.43 39.7055 24.334C39.8495 24.238 39.9335 24.118 39.9575 23.974C39.9815 23.806 39.9935 23.674 39.9935 23.578C39.9935 23.458 40.0295 23.362 40.1015 23.29C40.1975 23.218 40.2455 23.134 40.2455 23.038C40.3415 22.966 40.4015 22.954 40.4255 23.002C40.4495 23.05 40.5215 23.014 40.6415 22.894L40.8215 21.67L44.0255 21.634C43.9775 21.922 43.9055 22.282 43.8095 22.714C43.7135 23.122 43.4855 23.674 43.1255 24.37C43.0055 24.85 42.8615 25.282 42.6935 25.666C42.5495 26.05 42.4895 26.302 42.5135 26.422C42.4655 26.47 42.3575 26.71 42.1895 27.142C42.0455 27.574 41.8655 28.102 41.6495 28.726C41.4575 29.35 41.2535 29.974 41.0375 30.598C40.8455 31.222 40.6655 31.774 40.4975 32.254C40.3535 32.71 40.2575 32.998 40.2095 33.118C40.0175 33.502 39.8015 34.066 39.5615 34.81C39.3215 35.554 38.9615 36.562 38.4815 37.834C38.2895 38.218 38.0495 38.794 37.7615 39.562C37.4975 40.33 37.2815 41.026 37.1135 41.65C36.8495 42.586 36.6095 43.258 36.3935 43.666C36.2015 44.074 36.0215 44.314 35.8535 44.386C35.6855 44.482 35.5055 44.542 35.3135 44.566ZM35.6375 23.398C34.6535 23.494 33.9815 23.374 33.6215 23.038C33.2855 22.702 33.1655 22.342 33.2615 21.958C33.3335 21.67 33.5015 21.43 33.7655 21.238C34.0535 21.022 34.5695 20.842 35.3135 20.698C35.5775 20.65 35.9135 20.59 36.3215 20.518C36.7535 20.446 37.1615 20.374 37.5455 20.302C38.3375 20.206 38.9855 20.122 39.4895 20.05C40.0175 19.978 40.5575 19.918 41.1095 19.87C41.6615 19.822 42.3575 19.774 43.1975 19.726C43.8935 19.678 44.4815 19.642 44.9615 19.618C45.4655 19.57 45.7175 19.546 45.7175 19.546C45.7895 19.546 46.0415 19.57 46.4735 19.618C46.9055 19.666 47.3735 19.726 47.8775 19.798C48.3815 19.87 48.7535 19.954 48.9935 20.05C49.5455 20.17 49.9895 20.386 50.3255 20.698C50.6615 21.01 50.8775 21.37 50.9735 21.778C51.0455 22.066 51.0455 22.294 50.9735 22.462C50.9015 22.606 50.7695 22.726 50.5775 22.822C50.0255 22.99 49.5695 23.134 49.2095 23.254C48.8735 23.35 48.5375 23.338 48.2015 23.218C48.0815 23.098 47.9375 22.99 47.7695 22.894C47.6255 22.798 47.3615 22.726 46.9775 22.678C46.6175 22.606 46.0415 22.546 45.2495 22.498C44.5775 22.57 43.9895 22.606 43.4855 22.606C42.9815 22.606 42.7295 22.666 42.7295 22.786L40.6055 22.894L38.8415 23.074C38.6015 23.098 38.2655 23.134 37.8335 23.182C37.4015 23.206 36.9815 23.242 36.5735 23.29C36.1655 23.314 35.8535 23.35 35.6375 23.398Z" fill="#22D3EE"/>
<g clip-path="url(#clip2_17_10)">
<path d="M50.3594 14.4166C53.1068 14.4166 54.7552 16.3948 54.7552 20.4609V29.5823C54.7552 32.6594 56.9531 33.7583 58.2719 33.0989C56.9531 32.4396 54.7552 33.5385 54.7552 36.6156V45.737C54.7552 49.8031 53.1068 51.7813 50.3594 51.7813" stroke="white" stroke-width="2.08802" stroke-linecap="round" stroke-linejoin="round"/>
</g>
</g>
<defs>
<clipPath id="clip0_17_10">
<rect width="63.9931" height="63.9931" fill="white"/>
</clipPath>
<clipPath id="clip1_17_10">
<rect width="10.9896" height="40" fill="white" transform="translate(4 12)"/>
</clipPath>
<clipPath id="clip2_17_10">
<rect width="10.9896" height="40" fill="white" transform="translate(49.2603 12)"/>
</clipPath>
</defs>
</svg>
