<svg width="64" height="64" viewBox="0 0 64 64" fill="none" xmlns="http://www.w3.org/2000/svg">
<rect width="64" height="64" rx="32" fill="#1E293B"/>
<path d="M24.9814 35.1818V57H19.7079V35.1818H24.9814ZM27.5781 39.4645V35.1818H46.0192V39.4645H39.4034V57H34.2045V39.4645H27.5781Z" fill="#22D3EE"/>
<path d="M24.3832 16L21.886 7.27273H23.9016L25.3462 13.3366H25.4187L27.0124 7.27273H28.7383L30.3278 13.3494H30.4045L31.8491 7.27273H33.8647L31.3675 16H29.5692L27.9073 10.294H27.8391L26.1815 16H24.3832ZM37.098 16.1278C36.4247 16.1278 35.8452 15.9915 35.3594 15.7188C34.8764 15.4432 34.5043 15.054 34.2429 14.5511C33.9815 14.0455 33.8509 13.4474 33.8509 12.7571C33.8509 12.0838 33.9815 11.4929 34.2429 10.9844C34.5043 10.4759 34.8722 10.0795 35.3466 9.79545C35.8239 9.51136 36.3835 9.36932 37.0256 9.36932C37.4574 9.36932 37.8594 9.43892 38.2315 9.57812C38.6065 9.71449 38.9332 9.92045 39.2116 10.196C39.4929 10.4716 39.7116 10.8182 39.8679 11.2358C40.0241 11.6506 40.1023 12.1364 40.1023 12.6932V13.1918H34.5753V12.0668H38.3935C38.3935 11.8054 38.3366 11.5739 38.223 11.3722C38.1094 11.1705 37.9517 11.0128 37.75 10.8991C37.5511 10.7827 37.3196 10.7244 37.0554 10.7244C36.7798 10.7244 36.5355 10.7884 36.3224 10.9162C36.1122 11.0412 35.9474 11.2102 35.8281 11.4233C35.7088 11.6335 35.6477 11.8679 35.6449 12.1264V13.196C35.6449 13.5199 35.7045 13.7997 35.8239 14.0355C35.946 14.2713 36.1179 14.4531 36.3395 14.581C36.5611 14.7088 36.8239 14.7727 37.1278 14.7727C37.3295 14.7727 37.5142 14.7443 37.6818 14.6875C37.8494 14.6307 37.9929 14.5455 38.1122 14.4318C38.2315 14.3182 38.3224 14.179 38.3849 14.0142L40.0639 14.125C39.9787 14.5284 39.804 14.8807 39.5398 15.1818C39.2784 15.4801 38.9403 15.7131 38.5256 15.8807C38.1136 16.0455 37.6378 16.1278 37.098 16.1278ZM17.3445 21.2727H19.62L22.0234 27.1364H22.1257L24.5291 21.2727H26.8047V30H25.0149V24.3196H24.9425L22.6839 29.9574H21.4652L19.2067 24.2983H19.1342V30H17.3445V21.2727ZM30.1573 30.1236C29.7397 30.1236 29.3675 30.0511 29.0408 29.9062C28.7141 29.7585 28.4556 29.5412 28.2653 29.2543C28.0778 28.9645 27.984 28.6037 27.984 28.1719C27.984 27.8082 28.0508 27.5028 28.1843 27.2557C28.3178 27.0085 28.4996 26.8097 28.7298 26.6591C28.9599 26.5085 29.2212 26.3949 29.5138 26.3182C29.8093 26.2415 30.119 26.1875 30.4428 26.1562C30.8235 26.1165 31.1303 26.0795 31.3633 26.0455C31.5962 26.0085 31.7653 25.9545 31.8704 25.8835C31.9755 25.8125 32.0281 25.7074 32.0281 25.5682V25.5426C32.0281 25.2727 31.9428 25.0639 31.7724 24.9162C31.6048 24.7685 31.3661 24.6946 31.0565 24.6946C30.7298 24.6946 30.4698 24.767 30.2766 24.9119C30.0835 25.054 29.9556 25.233 29.8931 25.4489L28.2141 25.3125C28.2994 24.9148 28.467 24.571 28.717 24.2812C28.967 23.9886 29.2894 23.7642 29.6843 23.608C30.082 23.4489 30.5423 23.3693 31.065 23.3693C31.4286 23.3693 31.7766 23.4119 32.109 23.4972C32.4442 23.5824 32.7411 23.7145 32.9996 23.8935C33.261 24.0724 33.467 24.3026 33.6175 24.5838C33.7681 24.8622 33.8434 25.196 33.8434 25.5852V30H32.1218V29.0923H32.0707C31.9656 29.2969 31.8249 29.4773 31.6488 29.6335C31.4727 29.7869 31.261 29.9077 31.0138 29.9957C30.7667 30.081 30.4812 30.1236 30.1573 30.1236ZM30.6772 28.8707C30.9442 28.8707 31.18 28.8182 31.3846 28.7131C31.5891 28.6051 31.7496 28.4602 31.8661 28.2784C31.9826 28.0966 32.0408 27.8906 32.0408 27.6605V26.9659C31.984 27.0028 31.9059 27.0369 31.8065 27.0682C31.7099 27.0966 31.6005 27.1236 31.4783 27.1491C31.3562 27.1719 31.234 27.1932 31.1119 27.2131C30.9897 27.2301 30.8789 27.2457 30.7795 27.2599C30.5664 27.2912 30.3803 27.3409 30.2212 27.4091C30.0621 27.4773 29.9386 27.5696 29.8505 27.6861C29.7624 27.7997 29.7184 27.9418 29.7184 28.1122C29.7184 28.3594 29.8079 28.5483 29.9869 28.679C30.1687 28.8068 30.3988 28.8707 30.6772 28.8707ZM36.8967 28.1165L36.9009 25.9389H37.1651L39.2617 23.4545H41.3455L38.5288 26.7443H38.0984L36.8967 28.1165ZM35.2518 30V21.2727H37.0671V30H35.2518ZM39.3427 30L37.4165 27.1491L38.6268 25.8665L41.4691 30H39.3427ZM44.9496 30.1278C44.2763 30.1278 43.6967 29.9915 43.2109 29.7188C42.728 29.4432 42.3558 29.054 42.0945 28.5511C41.8331 28.0455 41.7024 27.4474 41.7024 26.7571C41.7024 26.0838 41.8331 25.4929 42.0945 24.9844C42.3558 24.4759 42.7237 24.0795 43.1982 23.7955C43.6754 23.5114 44.2351 23.3693 44.8771 23.3693C45.3089 23.3693 45.7109 23.4389 46.0831 23.5781C46.4581 23.7145 46.7848 23.9205 47.0632 24.196C47.3445 24.4716 47.5632 24.8182 47.7195 25.2358C47.8757 25.6506 47.9538 26.1364 47.9538 26.6932V27.1918H42.4268V26.0668H46.245C46.245 25.8054 46.1882 25.5739 46.0746 25.3722C45.9609 25.1705 45.8033 25.0128 45.6016 24.8991C45.4027 24.7827 45.1712 24.7244 44.907 24.7244C44.6314 24.7244 44.3871 24.7884 44.174 24.9162C43.9638 25.0412 43.799 25.2102 43.6797 25.4233C43.5604 25.6335 43.4993 25.8679 43.4964 26.1264V27.196C43.4964 27.5199 43.5561 27.7997 43.6754 28.0355C43.7976 28.2713 43.9695 28.4531 44.1911 28.581C44.4126 28.7088 44.6754 28.7727 44.9794 28.7727C45.1811 28.7727 45.3658 28.7443 45.5334 28.6875C45.701 28.6307 45.8445 28.5455 45.9638 28.4318C46.0831 28.3182 46.174 28.179 46.2365 28.0142L47.9155 28.125C47.8303 28.5284 47.6555 28.8807 47.3913 29.1818C47.13 29.4801 46.7919 29.7131 46.3771 29.8807C45.9652 30.0455 45.4893 30.1278 44.9496 30.1278Z" fill="white"/>
</svg>
