<svg width="350" height="110" viewBox="0 0 350 110" fill="none" xmlns="http://www.w3.org/2000/svg">
<path d="M5.25599 95.116C5.08799 94.852 4.70399 94.684 4.10399 94.612C3.52799 94.54 2.81999 94.528 1.97999 94.576C1.64399 94.624 1.31999 94.6 1.00799 94.504C0.695994 94.432 0.443994 94.3 0.251994 94.108C0.0839943 93.94 0.0239942 93.76 0.0719942 93.568C0.0959942 93.28 0.335994 93.052 0.791994 92.884C1.27199 92.716 2.02799 92.62 3.05999 92.596L4.96799 92.56L5.32799 91.84C5.42399 91.576 5.54399 91.204 5.68799 90.724C5.83199 90.244 5.98799 89.728 6.15599 89.176C6.25199 88.84 6.39599 88.384 6.58799 87.808C6.77999 87.232 6.98399 86.62 7.19999 85.972C7.41599 85.324 7.608 84.748 7.776 84.244C7.94399 83.716 8.052 83.344 8.1 83.128C8.19599 82.912 8.32799 82.552 8.49599 82.048C8.66399 81.52 8.81999 80.992 8.96399 80.464C9.13199 79.912 9.23999 79.516 9.28799 79.276C9.91199 77.38 10.32 76.036 10.512 75.244C10.704 74.428 10.752 74.008 10.656 73.984C10.56 73.984 10.32 73.996 9.936 74.02C9.57599 74.044 9.16799 74.08 8.71199 74.128C8.27999 74.152 7.88399 74.188 7.524 74.236C7.18799 74.284 6.98399 74.332 6.91199 74.38C6.79199 74.548 6.58799 74.584 6.29999 74.488C6.01199 74.392 5.83199 74.224 5.75999 73.984C5.73599 73.768 5.72399 73.6 5.72399 73.48C5.74799 73.36 5.81999 73.264 5.93999 73.192C6.10799 73.048 6.43199 72.892 6.91199 72.724C7.39199 72.532 7.93199 72.364 8.53199 72.22C9.15599 72.076 9.74399 71.968 10.296 71.896C10.704 71.848 11.112 71.764 11.52 71.644C11.928 71.5 12.252 71.332 12.492 71.14C12.708 71.068 12.912 71.008 13.104 70.96C13.32 70.912 13.536 70.9 13.752 70.924C13.944 71.044 14.268 71.104 14.724 71.104C15.204 71.104 15.708 71.092 16.236 71.068C17.58 70.948 18.48 70.912 18.936 70.96C19.416 71.008 19.74 71.2 19.908 71.536C20.028 71.992 20.052 72.352 19.98 72.616C19.908 72.856 19.668 72.964 19.26 72.94C19.044 72.988 18.648 73.036 18.072 73.084C17.52 73.108 16.932 73.132 16.308 73.156C14.604 73.3 13.692 73.468 13.572 73.66C13.476 73.756 13.392 73.852 13.32 73.948C13.272 74.044 13.2 74.152 13.104 74.272C13.128 74.368 13.068 74.68 12.924 75.208C12.804 75.712 12.648 76.228 12.456 76.756C12.36 77.068 12.216 77.512 12.024 78.088C11.832 78.664 11.628 79.264 11.412 79.888C11.22 80.488 11.04 81.04 10.872 81.544C10.704 82.024 10.584 82.348 10.512 82.516C10.416 82.732 10.332 82.972 10.26 83.236C10.212 83.476 10.176 83.656 10.152 83.776C9.81599 84.952 9.51599 85.948 9.25199 86.764C9.01199 87.58 8.78399 88.3 8.56799 88.924C8.37599 89.524 8.19599 90.112 8.02799 90.688C7.86 91.24 7.67999 91.852 7.48799 92.524C7.48799 92.524 7.66799 92.512 8.02799 92.488C8.412 92.44 8.916 92.392 9.53999 92.344C10.668 92.224 11.472 92.152 11.952 92.128C12.456 92.104 12.792 92.14 12.96 92.236C13.128 92.308 13.248 92.452 13.32 92.668C13.8 93.316 13.86 93.76 13.5 94C13.14 94.24 12.288 94.348 10.944 94.324C9.69599 94.372 8.73599 94.408 8.06399 94.432C7.41599 94.48 6.95999 94.54 6.69599 94.612C6.45599 94.684 6.31199 94.804 6.26399 94.972C6.26399 95.164 6.16799 95.26 5.97599 95.26C5.78399 95.26 5.54399 95.212 5.25599 95.116ZM28.7505 92.344C28.2705 92.344 27.8745 92.248 27.5625 92.056C27.2505 91.84 26.9865 91.492 26.7705 91.012C26.6745 90.676 26.5905 90.304 26.5185 89.896C26.4705 89.464 26.4465 89.068 26.4465 88.708C26.4465 88.324 26.4825 88.072 26.5545 87.952C26.6505 87.856 26.6865 87.688 26.6625 87.448C26.6625 87.184 26.6625 86.908 26.6625 86.62C26.6385 86.14 26.5185 85.876 26.3025 85.828C26.1105 85.756 25.8225 85.828 25.4385 86.044C25.0065 86.308 24.4425 86.668 23.7465 87.124C23.0505 87.556 22.3185 88.036 21.5505 88.564C20.8065 89.092 20.0985 89.644 19.4265 90.22C18.8985 90.796 18.5745 91.24 18.4545 91.552C18.3585 91.84 18.2145 91.984 18.0225 91.984C17.8305 92.08 17.6625 92.092 17.5185 92.02C17.3985 91.924 17.2185 91.78 16.9785 91.588C16.8105 91.396 16.6425 91.216 16.4745 91.048C16.3065 90.856 16.1985 90.712 16.1505 90.616C16.1505 90.496 16.1865 90.244 16.2585 89.86C16.3305 89.476 16.4145 89.092 16.5105 88.708C16.6305 88.324 16.7145 88.072 16.7625 87.952C16.8825 87.952 16.9785 87.832 17.0505 87.592C17.1465 87.352 17.2905 87.088 17.4825 86.8C17.5305 86.512 17.6505 86.128 17.8425 85.648C18.0585 85.144 18.2505 84.7 18.4185 84.316C18.7545 83.74 18.9825 83.26 19.1025 82.876C19.2465 82.492 19.3425 82.012 19.3905 81.436C19.3665 81.34 19.3905 81.256 19.4625 81.184C19.5345 81.088 19.6185 81.04 19.7145 81.04C19.9065 80.848 20.1345 80.8 20.3985 80.896C20.6625 80.968 20.9025 81.148 21.1185 81.436C21.5505 82.012 21.7185 82.612 21.6225 83.236C21.5505 83.836 21.1665 84.7 20.4705 85.828C20.3025 86.212 20.1705 86.512 20.0745 86.728C20.0025 86.92 19.9665 87.076 19.9665 87.196C19.9665 87.196 20.0865 87.112 20.3265 86.944C20.5905 86.776 20.8785 86.584 21.1905 86.368C21.5265 86.128 21.7905 85.948 21.9825 85.828C22.1025 85.708 22.3785 85.492 22.8105 85.18C23.2425 84.868 23.6985 84.568 24.1785 84.28C24.6825 83.968 25.0545 83.788 25.2945 83.74C25.4865 83.644 25.6905 83.56 25.9065 83.488C26.1225 83.392 26.2785 83.344 26.3745 83.344C26.5665 83.344 26.8065 83.452 27.0945 83.668C27.4065 83.86 27.6945 84.1 27.9585 84.388C28.2225 84.652 28.3785 84.88 28.4265 85.072C28.4265 85.168 28.4265 85.264 28.4265 85.36C28.4505 85.456 28.4745 85.552 28.4985 85.648C28.5945 85.96 28.6425 86.38 28.6425 86.908C28.6665 87.436 28.6545 87.916 28.6065 88.348C28.5585 88.78 28.4745 89.032 28.3545 89.104C28.3545 89.104 28.3545 89.14 28.3545 89.212C28.3785 89.26 28.4385 89.284 28.5345 89.284C28.5345 89.38 28.5345 89.44 28.5345 89.464C28.4145 89.464 28.3665 89.572 28.3905 89.788C28.4145 89.98 28.4865 90.196 28.6065 90.436C28.7505 90.676 28.8945 90.868 29.0385 91.012C29.3265 91.3 29.4465 91.576 29.3985 91.84C29.3505 92.08 29.1345 92.248 28.7505 92.344ZM34.0855 96.7C33.7735 96.724 33.4855 96.58 33.2215 96.268C32.9575 95.956 32.7415 95.5 32.5735 94.9C32.4295 94.324 32.3575 93.64 32.3575 92.848C32.2615 91.864 32.3455 90.616 32.6095 89.104C32.8735 87.568 33.2695 85.852 33.7975 83.956C33.9895 83.308 34.2655 82.516 34.6255 81.58C34.9855 80.644 35.3575 79.72 35.7415 78.808C36.1495 77.896 36.5095 77.128 36.8215 76.504C37.1335 75.856 37.3255 75.496 37.3975 75.424C37.5415 75.472 37.6135 75.364 37.6135 75.1C37.6135 75.052 37.7095 74.872 37.9015 74.56C38.0935 74.248 38.2735 73.912 38.4415 73.552C38.7535 73.096 39.1255 72.652 39.5575 72.22C39.9895 71.764 40.4335 71.368 40.8895 71.032C41.3695 70.672 41.8015 70.42 42.1855 70.276C42.5455 70.132 42.9055 70.06 43.2655 70.06C43.7215 70.06 44.1295 70.168 44.4895 70.384C44.8735 70.6 45.1735 70.9 45.3895 71.284C45.6055 71.644 45.7135 72.052 45.7135 72.508C45.7135 72.892 45.6295 73.264 45.4615 73.624C45.3895 73.984 45.2455 74.368 45.0295 74.776C44.8375 75.16 44.6335 75.52 44.4175 75.856C44.2255 76.168 44.0695 76.408 43.9495 76.576C43.6375 76.744 43.3735 76.816 43.1575 76.792C42.9415 76.768 42.8935 76.672 43.0135 76.504C43.0135 76.408 43.0375 76.288 43.0855 76.144C43.1575 76 43.2055 75.844 43.2295 75.676C43.2295 75.628 43.2775 75.484 43.3735 75.244C43.4935 75.004 43.5535 74.764 43.5535 74.524C43.7695 73.66 43.8655 73.048 43.8415 72.688C43.8415 72.328 43.7335 72.148 43.5175 72.148C43.3975 72.124 43.2055 72.172 42.9415 72.292C42.6775 72.412 42.4375 72.556 42.2215 72.724C42.0055 72.868 41.8975 73 41.8975 73.12C41.8975 73.192 41.8975 73.24 41.8975 73.264C41.8255 73.24 41.5975 73.444 41.2135 73.876C40.8535 74.284 40.4455 74.788 39.9895 75.388C39.5575 75.964 39.1975 76.492 38.9095 76.972C38.7175 77.38 38.4655 77.92 38.1535 78.592C37.8415 79.264 37.4815 80.128 37.0735 81.184L36.7855 82.048L37.3615 82.12C37.5535 82.144 37.8535 82.132 38.2615 82.084C38.6695 82.012 39.0655 81.94 39.4495 81.868C40.2655 81.748 40.8415 81.748 41.1775 81.868C41.5135 81.988 41.7655 82.24 41.9335 82.624C42.1975 83.2 42.0055 83.596 41.3575 83.812C40.7095 84.004 39.4735 84.148 37.6495 84.244C37.2655 84.196 36.9295 84.184 36.6415 84.208C36.3775 84.208 36.1975 84.256 36.1015 84.352C36.0055 84.4 35.8735 84.664 35.7055 85.144C35.5375 85.6 35.3575 86.152 35.1655 86.8C34.9975 87.424 34.8655 88.024 34.7695 88.6C34.5775 89.344 34.4455 90.112 34.3735 90.904C34.3015 91.672 34.2775 92.392 34.3015 93.064C34.3255 93.712 34.3855 94.216 34.4815 94.576C34.6255 95.152 34.6615 95.62 34.5895 95.98C34.5415 96.34 34.3735 96.58 34.0855 96.7ZM45.1741 93.46C44.8621 93.46 44.6101 93.4 44.4181 93.28C44.2501 93.16 44.0341 92.992 43.7701 92.776C43.3141 92.296 42.9901 91.84 42.7981 91.408C42.6061 90.952 42.5461 90.52 42.6181 90.112C42.6901 89.92 42.7141 89.74 42.6901 89.572C42.6901 89.38 42.6901 89.284 42.6901 89.284C42.5701 89.164 42.5341 89.092 42.5821 89.068C42.6301 89.02 42.6781 88.948 42.7261 88.852C42.8701 88.852 42.9181 88.72 42.8701 88.456C42.8221 88.264 42.9181 87.844 43.1581 87.196C43.3981 86.548 43.6981 85.936 44.0581 85.36C44.2021 85.12 44.4181 84.808 44.7061 84.424C44.9941 84.016 45.3061 83.62 45.6421 83.236C46.0021 82.828 46.3261 82.504 46.6141 82.264C47.2141 81.76 47.7421 81.388 48.1981 81.148C48.6541 80.908 49.1461 80.728 49.6741 80.608C50.2021 80.488 50.5621 80.428 50.7541 80.428C50.9701 80.428 51.2581 80.62 51.6181 81.004C52.1701 81.244 52.5661 81.532 52.8061 81.868C53.0701 82.204 53.2381 82.696 53.3101 83.344C53.3821 84.064 53.3221 84.892 53.1301 85.828C52.9621 86.74 52.3981 87.88 51.4381 89.248C50.8381 90.112 50.2861 90.76 49.7821 91.192C49.2781 91.6 48.6781 92.008 47.9821 92.416C47.4781 92.752 47.0221 93.004 46.6141 93.172C46.2061 93.316 45.7261 93.412 45.1741 93.46ZM48.6301 89.644C49.2061 88.996 49.6621 88.384 49.9981 87.808C50.3581 87.232 50.6941 86.5 51.0061 85.612C51.1021 85.348 51.1621 85.024 51.1861 84.64C51.2101 84.232 51.1981 83.86 51.1501 83.524C51.1261 83.164 51.0421 82.96 50.8981 82.912C50.6101 82.744 50.2621 82.696 49.8541 82.768C49.4461 82.816 49.0021 83.044 48.5221 83.452C47.7781 84.076 47.1301 84.856 46.5781 85.792C46.0261 86.704 45.4861 87.748 44.9581 88.924C44.5981 89.788 44.5141 90.484 44.7061 91.012C44.9221 91.516 45.3661 91.696 46.0381 91.552C46.7341 91.384 47.5981 90.748 48.6301 89.644ZM57.1815 93.172C57.0615 93.412 56.8815 93.484 56.6415 93.388C56.4255 93.292 56.2455 93.196 56.1015 93.1C55.9335 93.1 55.7895 93.052 55.6695 92.956C55.5495 92.86 55.4655 92.716 55.4175 92.524C55.3695 92.38 55.3575 92.212 55.3815 92.02C55.4055 91.804 55.4535 91.564 55.5255 91.3C55.6215 91.012 55.7175 90.7 55.8135 90.364C56.0055 89.572 56.1375 88.996 56.2095 88.636C56.2815 88.276 56.3535 87.964 56.4255 87.7C56.4975 87.436 56.5935 87.052 56.7135 86.548C56.9055 86.068 57.0615 85.6 57.1815 85.144C57.3015 84.688 57.4815 84.232 57.7215 83.776C57.8895 83.152 58.0935 82.564 58.3335 82.012C58.5975 81.436 58.8495 80.956 59.0895 80.572C59.1375 80.5 59.2215 80.404 59.3415 80.284C59.4855 80.164 59.6055 80.104 59.7015 80.104C59.8935 79.912 60.0615 79.84 60.2055 79.888C60.3735 79.912 60.5775 80.02 60.8175 80.212C61.1055 80.524 61.2135 80.884 61.1415 81.292C61.0935 81.7 60.8055 82.3 60.2775 83.092C59.9895 83.836 59.7255 84.484 59.4855 85.036C59.2455 85.564 59.0775 86.068 58.9815 86.548C59.2455 86.164 59.5335 85.816 59.8455 85.504C60.1815 85.168 60.4575 84.892 60.6735 84.676C61.2015 84.148 61.6335 83.764 61.9695 83.524C62.3295 83.284 62.7495 83.008 63.2295 82.696C63.5175 82.504 63.7935 82.336 64.0575 82.192C64.3215 82.024 64.6095 81.904 64.9215 81.832C65.2575 81.76 65.6175 81.76 66.0015 81.832C66.2415 81.808 66.4335 81.88 66.5775 82.048C66.7455 82.216 66.8775 82.444 66.9735 82.732C67.0695 83.02 67.1295 83.356 67.1535 83.74C66.6015 83.62 66.1095 83.644 65.6775 83.812C65.2455 83.956 64.8735 84.136 64.5615 84.352C64.2735 84.568 64.0455 84.736 63.8775 84.856C63.5175 85.096 63.0615 85.42 62.5095 85.828C61.9575 86.212 61.4055 86.68 60.8535 87.232C60.4215 87.712 60.0495 88.12 59.7375 88.456C59.4495 88.792 59.2095 89.092 59.0175 89.356C58.8495 89.62 58.7175 89.896 58.6215 90.184C58.3815 90.736 58.1295 91.336 57.8655 91.984C57.6015 92.632 57.3735 93.028 57.1815 93.172ZM84.5902 92.488C84.4702 92.44 84.2902 92.32 84.0502 92.128C83.8102 91.936 83.6062 91.612 83.4382 91.156C83.2702 90.676 83.1862 90.016 83.1862 89.176C83.2102 88.456 83.2222 87.892 83.2222 87.484C83.2462 87.076 83.1622 86.872 82.9702 86.872C82.7782 86.872 82.4062 87.064 81.8542 87.448C81.3262 87.808 80.7142 88.3 80.0182 88.924C79.3222 89.548 78.6142 90.244 77.8942 91.012C77.6542 91.276 77.4142 91.528 77.1742 91.768C76.9582 91.984 76.7422 92.128 76.5262 92.2C76.3102 92.248 76.0582 92.164 75.7702 91.948L75.3742 91.624C75.2542 91.504 75.1822 91.384 75.1582 91.264C75.1342 91.12 75.1462 90.964 75.1942 90.796L76.0222 88.42C76.4062 87.556 76.6702 86.932 76.8142 86.548C76.9582 86.14 77.0302 85.888 77.0302 85.792C77.0302 85.672 76.9942 85.624 76.9222 85.648C76.7302 85.672 76.4422 85.792 76.0582 86.008C75.6742 86.2 75.4222 86.392 75.3022 86.584C75.2062 86.584 75.0622 86.692 74.8702 86.908C74.6782 87.124 74.4382 87.328 74.1502 87.52C73.9822 87.808 73.6462 88.18 73.1422 88.636C72.6622 89.092 72.1822 89.56 71.7022 90.04C71.3902 90.304 71.0782 90.628 70.7662 91.012C70.4782 91.396 70.2262 91.732 70.0102 92.02C69.8182 92.308 69.6862 92.452 69.6142 92.452C69.3022 92.452 69.0142 92.368 68.7502 92.2C68.5102 92.032 68.3302 91.756 68.2102 91.372C68.0182 90.964 68.0182 90.4 68.2102 89.68C68.4022 88.936 68.6182 87.976 68.8582 86.8C68.9542 86.44 69.0142 86.176 69.0382 86.008C69.0622 85.84 69.0982 85.672 69.1462 85.504C69.2182 85.312 69.3262 85.024 69.4702 84.64C69.6382 84.256 69.8902 83.68 70.2262 82.912C70.3942 82.456 70.4902 82.12 70.5142 81.904C70.5622 81.664 70.5862 81.496 70.5862 81.4C70.5862 81.16 70.6462 80.956 70.7662 80.788C70.9102 80.62 71.0782 80.5 71.2702 80.428C71.4622 80.356 71.6422 80.344 71.8102 80.392C72.0742 80.44 72.3022 80.572 72.4942 80.788C72.7102 81.004 72.8302 81.304 72.8542 81.688C72.8782 81.976 72.8542 82.24 72.7822 82.48C72.7102 82.696 72.6382 82.9 72.5662 83.092L72.1702 84.064C72.0502 84.328 71.8942 84.712 71.7022 85.216C71.5102 85.72 71.3422 86.188 71.1982 86.62C71.0542 87.028 70.9822 87.268 70.9822 87.34C71.0062 87.412 71.0902 87.4 71.2342 87.304C71.3782 87.184 71.5582 87.028 71.7742 86.836C72.0142 86.62 72.2542 86.416 72.4942 86.224C72.9982 85.744 73.5622 85.288 74.1862 84.856C74.8342 84.4 75.4462 84.016 76.0222 83.704C76.5982 83.392 77.0422 83.188 77.3542 83.092C77.7622 83.092 78.0382 83.164 78.1822 83.308C78.3502 83.452 78.6262 83.716 79.0102 84.1C79.1782 84.268 79.2742 84.484 79.2982 84.748C79.3222 85.012 79.3102 85.264 79.2622 85.504C79.2382 85.6 79.1662 85.84 79.0462 86.224C78.9262 86.584 78.8062 86.932 78.6862 87.268C78.5902 87.604 78.5422 87.772 78.5422 87.772C78.5422 87.772 78.6742 87.652 78.9382 87.412C79.2262 87.172 79.5382 86.92 79.8742 86.656C80.2102 86.368 80.4622 86.152 80.6302 86.008C81.5662 85.288 82.3822 84.832 83.0782 84.64C83.7742 84.448 84.3382 84.7 84.7702 85.396C85.0582 85.66 85.2022 85.948 85.2022 86.26C85.2262 86.572 85.2382 87.112 85.2382 87.88C85.2622 88.192 85.2862 88.564 85.3102 88.996C85.3342 89.428 85.3582 89.824 85.3822 90.184C85.4302 90.52 85.4782 90.724 85.5262 90.796C85.5982 90.892 85.7302 90.976 85.9222 91.048C86.1382 91.096 86.4142 91.144 86.7502 91.192C87.1102 91.24 87.3262 91.396 87.3982 91.66C87.4702 91.924 87.3142 92.176 86.9302 92.416C86.5702 92.632 86.1742 92.728 85.7422 92.704C85.3102 92.68 84.9262 92.608 84.5902 92.488ZM91.5587 92.956C91.3667 93.004 91.1147 93.028 90.8027 93.028C90.4907 93.004 90.2147 92.968 89.9747 92.92C89.7587 92.848 89.6507 92.776 89.6507 92.704C89.6507 92.584 89.5907 92.524 89.4707 92.524C89.4707 92.524 89.4107 92.476 89.2907 92.38C89.1947 92.284 89.0387 92.188 88.8227 92.092C88.6067 91.756 88.4987 91.396 88.4987 91.012C88.4987 90.604 88.6067 89.968 88.8227 89.104C88.8947 88.504 89.1227 87.808 89.5067 87.016C89.9147 86.2 90.4067 85.372 90.9827 84.532C91.5587 83.692 92.1587 82.936 92.7827 82.264C93.4307 81.592 94.0187 81.1 94.5467 80.788C94.8827 80.452 95.2907 80.272 95.7707 80.248C96.2507 80.224 96.7067 80.332 97.1387 80.572C97.3787 80.692 97.6187 80.884 97.8587 81.148C98.0987 81.412 98.3267 81.7 98.5427 82.012C98.7587 82.324 98.9387 82.636 99.0827 82.948C99.1547 83.212 99.1907 83.452 99.1907 83.668C99.2147 83.86 99.2147 84.1 99.1907 84.388C99.1907 84.676 99.1547 85.108 99.0827 85.684C98.9627 86.116 98.8547 86.644 98.7587 87.268C98.6867 87.892 98.6507 88.432 98.6507 88.888C98.6027 89.344 98.6507 89.668 98.7947 89.86C98.9627 90.052 99.2027 90.064 99.5147 89.896C99.8027 89.752 100.079 89.692 100.343 89.716C100.607 89.716 100.811 89.788 100.955 89.932C101.123 90.076 101.207 90.292 101.207 90.58C101.207 90.868 101.063 91.168 100.775 91.48C100.511 91.768 100.175 92.02 99.7667 92.236C99.3827 92.428 99.0107 92.524 98.6507 92.524C98.3867 92.524 98.1347 92.368 97.8947 92.056C97.6547 91.72 97.4387 91.324 97.2467 90.868C97.0787 90.388 96.9227 89.932 96.7787 89.5L96.5627 88.672L95.0147 90.148C94.7027 90.484 94.3907 90.796 94.0787 91.084C93.7907 91.348 93.6107 91.54 93.5387 91.66C93.4187 91.876 93.1907 92.092 92.8547 92.308C92.5427 92.524 92.1107 92.74 91.5587 92.956ZM91.6667 90.832C92.0747 90.592 92.5427 90.244 93.0707 89.788C93.5987 89.308 94.1147 88.792 94.6187 88.24C95.1227 87.664 95.5427 87.136 95.8787 86.656C96.2867 86.104 96.5987 85.588 96.8147 85.108C97.0307 84.628 97.1867 84.172 97.2827 83.74C97.1867 83.476 97.0307 83.2 96.8147 82.912C96.5987 82.6 96.4067 82.432 96.2387 82.408C95.7107 82.408 95.1467 82.744 94.5467 83.416C93.9707 84.064 93.4067 84.772 92.8547 85.54C92.7587 85.66 92.6267 85.852 92.4587 86.116C92.2907 86.38 92.1227 86.632 91.9547 86.872C91.8107 87.088 91.7147 87.232 91.6667 87.304C91.5947 87.4 91.4507 87.676 91.2347 88.132C91.0427 88.564 90.8507 89.008 90.6587 89.464C90.4667 89.896 90.3707 90.184 90.3707 90.328C90.3707 90.472 90.3827 90.628 90.4067 90.796C90.4547 90.964 90.5747 91.072 90.7667 91.12C90.9587 91.168 91.2587 91.072 91.6667 90.832ZM107.448 93.928C107.112 93.832 106.836 93.724 106.62 93.604C106.404 93.46 106.116 93.232 105.756 92.92C105.468 92.536 105.24 92.176 105.072 91.84C104.928 91.504 104.832 91.12 104.784 90.688C104.736 90.232 104.712 89.656 104.712 88.96C104.712 88.672 104.76 88.24 104.856 87.664C104.976 87.088 105.108 86.488 105.252 85.864C105.42 85.216 105.564 84.64 105.684 84.136C105.828 83.632 105.912 83.308 105.936 83.164C106.008 82.852 105.888 82.672 105.576 82.624C105.264 82.576 104.916 82.564 104.532 82.588C104.172 82.588 103.932 82.552 103.812 82.48C103.716 82.456 103.668 82.42 103.668 82.372C103.668 82.3 103.668 82.264 103.668 82.264C103.668 82.168 103.656 82.108 103.632 82.084C103.632 82.036 103.596 81.952 103.524 81.832C103.476 81.736 103.5 81.604 103.596 81.436C103.716 81.244 103.908 81.124 104.172 81.076C104.388 81.028 104.676 80.992 105.036 80.968C105.42 80.92 105.804 80.836 106.188 80.716C106.572 80.572 106.884 80.356 107.124 80.068C107.34 79.54 107.592 78.952 107.88 78.304C108.168 77.656 108.444 77.08 108.708 76.576C108.996 76.048 109.188 75.724 109.284 75.604C109.692 75.388 109.992 75.304 110.184 75.352C110.376 75.376 110.592 75.58 110.832 75.964C110.952 76.132 111.036 76.264 111.084 76.36C111.156 76.456 111.168 76.6 111.12 76.792C111.072 76.984 110.94 77.284 110.724 77.692C110.532 78.1 110.232 78.688 109.824 79.456C109.704 79.696 109.596 79.912 109.5 80.104C109.404 80.272 109.356 80.356 109.356 80.356C109.452 80.38 109.596 80.392 109.788 80.392C109.98 80.392 110.22 80.38 110.508 80.356C110.772 80.308 111.108 80.272 111.516 80.248C111.924 80.2 112.248 80.2 112.488 80.248C113.04 80.248 113.448 80.356 113.712 80.572C113.976 80.764 114.12 81.1 114.144 81.58C114.192 81.844 114.132 82 113.964 82.048C113.82 82.096 113.424 82.12 112.776 82.12C112.56 82.12 112.224 82.132 111.768 82.156C111.312 82.18 110.832 82.204 110.328 82.228C109.848 82.252 109.428 82.288 109.068 82.336C108.732 82.36 108.564 82.396 108.564 82.444C108.492 82.492 108.372 82.72 108.204 83.128C108.06 83.536 107.904 84.004 107.736 84.532C107.592 85.036 107.46 85.492 107.34 85.9C107.172 86.716 107.04 87.532 106.944 88.348C106.872 89.164 106.86 89.872 106.908 90.472C106.956 91.072 107.088 91.492 107.304 91.732C107.52 91.948 107.94 91.996 108.564 91.876C109.188 91.732 109.692 91.504 110.076 91.192C110.508 90.832 110.856 90.652 111.12 90.652C111.408 90.652 111.564 90.784 111.588 91.048C111.636 91.288 111.504 91.636 111.192 92.092C110.904 92.524 110.544 92.908 110.112 93.244C109.68 93.556 109.224 93.784 108.744 93.928C108.288 94.048 107.856 94.048 107.448 93.928ZM115.55 92.236C115.454 92.236 115.334 92.212 115.19 92.164C115.07 92.092 115.01 92.056 115.01 92.056C115.01 91.96 114.974 91.84 114.902 91.696C114.854 91.552 114.83 91.432 114.83 91.336C114.662 91.24 114.566 91.144 114.542 91.048C114.518 90.928 114.554 90.736 114.65 90.472C114.794 90.232 114.986 89.848 115.226 89.32C115.466 88.768 115.718 88.18 115.982 87.556C116.246 86.908 116.498 86.272 116.738 85.648C116.978 85.024 117.182 84.496 117.35 84.064C117.518 83.608 117.614 83.332 117.638 83.236C117.638 83.14 117.674 83.02 117.746 82.876C117.818 82.732 117.902 82.612 117.998 82.516C118.19 82.348 118.394 82.336 118.61 82.48C118.826 82.6 119.006 82.816 119.15 83.128C119.318 83.416 119.402 83.74 119.402 84.1C119.402 84.268 119.282 84.7 119.042 85.396C118.802 86.068 118.478 86.872 118.07 87.808C117.686 88.744 117.254 89.692 116.774 90.652C116.414 91.348 116.186 91.792 116.09 91.984C115.994 92.152 115.814 92.236 115.55 92.236ZM120.842 78.592C120.554 78.592 120.242 78.484 119.906 78.268C119.594 78.028 119.318 77.74 119.078 77.404C118.862 77.044 118.754 76.684 118.754 76.324C118.754 76.204 118.826 76.036 118.97 75.82C119.114 75.604 119.258 75.388 119.402 75.172C119.546 74.956 119.618 74.824 119.618 74.776C119.81 74.776 119.954 74.788 120.05 74.812C120.17 74.812 120.314 74.86 120.482 74.956C120.746 75.556 121.07 76.048 121.454 76.432C121.862 76.816 122.066 77.14 122.066 77.404C122.066 77.932 122.018 78.268 121.922 78.412C121.826 78.532 121.466 78.592 120.842 78.592ZM124.065 93.46C123.753 93.46 123.501 93.4 123.309 93.28C123.141 93.16 122.925 92.992 122.661 92.776C122.205 92.296 121.881 91.84 121.689 91.408C121.497 90.952 121.437 90.52 121.509 90.112C121.581 89.92 121.605 89.74 121.581 89.572C121.581 89.38 121.581 89.284 121.581 89.284C121.461 89.164 121.425 89.092 121.473 89.068C121.521 89.02 121.569 88.948 121.617 88.852C121.761 88.852 121.809 88.72 121.761 88.456C121.713 88.264 121.809 87.844 122.049 87.196C122.289 86.548 122.589 85.936 122.949 85.36C123.093 85.12 123.309 84.808 123.597 84.424C123.885 84.016 124.197 83.62 124.533 83.236C124.893 82.828 125.217 82.504 125.505 82.264C126.105 81.76 126.633 81.388 127.089 81.148C127.545 80.908 128.037 80.728 128.565 80.608C129.093 80.488 129.453 80.428 129.645 80.428C129.861 80.428 130.149 80.62 130.509 81.004C131.061 81.244 131.457 81.532 131.697 81.868C131.961 82.204 132.129 82.696 132.201 83.344C132.273 84.064 132.213 84.892 132.021 85.828C131.853 86.74 131.289 87.88 130.329 89.248C129.729 90.112 129.177 90.76 128.673 91.192C128.169 91.6 127.569 92.008 126.873 92.416C126.369 92.752 125.913 93.004 125.505 93.172C125.097 93.316 124.617 93.412 124.065 93.46ZM127.521 89.644C128.097 88.996 128.553 88.384 128.889 87.808C129.249 87.232 129.585 86.5 129.897 85.612C129.993 85.348 130.053 85.024 130.077 84.64C130.101 84.232 130.089 83.86 130.041 83.524C130.017 83.164 129.933 82.96 129.789 82.912C129.501 82.744 129.153 82.696 128.745 82.768C128.337 82.816 127.893 83.044 127.413 83.452C126.669 84.076 126.021 84.856 125.469 85.792C124.917 86.704 124.377 87.748 123.849 88.924C123.489 89.788 123.405 90.484 123.597 91.012C123.813 91.516 124.257 91.696 124.929 91.552C125.625 91.384 126.489 90.748 127.521 89.644ZM136 92.416C135.904 92.416 135.76 92.356 135.568 92.236C135.4 92.092 135.268 91.972 135.172 91.876C135.004 91.684 134.896 91.492 134.848 91.3C134.824 91.108 134.812 90.676 134.812 90.004C134.812 89.236 134.968 88.408 135.28 87.52C135.592 86.608 136.12 85.336 136.864 83.704L138.052 81.184C138.148 80.992 138.232 80.848 138.304 80.752C138.4 80.656 138.484 80.56 138.556 80.464C138.652 80.464 138.736 80.464 138.808 80.464C138.88 80.464 138.916 80.464 138.916 80.464C139.108 80.464 139.3 80.584 139.492 80.824C139.684 81.04 139.828 81.28 139.924 81.544C139.924 81.856 139.876 82.18 139.78 82.516C139.708 82.852 139.42 83.356 138.916 84.028C138.748 84.292 138.52 84.736 138.232 85.36C137.968 85.984 137.788 86.524 137.692 86.98C137.668 87.004 137.62 87.112 137.548 87.304C137.476 87.472 137.392 87.664 137.296 87.88C137.224 88.096 137.14 88.3 137.044 88.492L136.864 89.284L139.276 86.8C140.404 85.672 141.316 84.868 142.012 84.388C142.708 83.908 143.26 83.704 143.668 83.776C144.076 83.848 144.424 84.172 144.712 84.748C144.88 85.012 145 85.252 145.072 85.468C145.168 85.66 145.228 85.924 145.252 86.26C145.276 86.596 145.252 87.1 145.18 87.772V90.004C145.54 89.908 145.828 89.824 146.044 89.752C146.26 89.656 146.488 89.56 146.728 89.464C146.944 89.368 147.196 89.284 147.484 89.212C147.772 89.116 148.132 89.056 148.564 89.032C148.54 89.344 148.432 89.68 148.24 90.04C148.048 90.376 147.808 90.7 147.52 91.012C147.232 91.324 146.908 91.576 146.548 91.768C146.212 91.96 145.876 92.056 145.54 92.056C145.228 92.056 144.88 91.9 144.496 91.588C144.112 91.276 143.836 90.928 143.668 90.544C143.572 90.28 143.512 89.992 143.488 89.68C143.488 89.368 143.488 88.792 143.488 87.952V86.62C143.488 86.236 143.368 86.128 143.128 86.296C142.912 86.44 142.732 86.572 142.588 86.692C142.228 87.004 141.844 87.364 141.436 87.772C141.052 88.18 140.656 88.6 140.248 89.032C139.144 90.184 138.22 91.036 137.476 91.588C136.756 92.14 136.264 92.416 136 92.416ZM163.338 95.584C163.146 95.584 162.93 95.428 162.69 95.116C162.45 94.804 162.342 94.504 162.366 94.216C162.39 93.832 162.498 93.28 162.69 92.56C162.882 91.84 163.098 91.108 163.338 90.364C163.578 89.62 163.794 89.032 163.986 88.6C164.082 88.216 164.166 87.88 164.238 87.592C164.334 87.28 164.394 87.076 164.418 86.98C164.49 86.884 164.598 86.632 164.742 86.224C164.91 85.816 165.042 85.42 165.138 85.036C165.186 84.844 165.282 84.484 165.426 83.956C165.594 83.404 165.786 82.768 166.002 82.048C166.242 81.328 166.47 80.62 166.686 79.924C166.926 79.228 167.13 78.616 167.298 78.088C167.466 77.56 167.574 77.212 167.622 77.044C167.814 76.756 167.958 76.48 168.054 76.216C168.15 75.952 168.21 75.772 168.234 75.676C168.378 75.58 168.462 75.46 168.486 75.316C168.51 75.148 168.522 75.016 168.522 74.92C168.522 74.8 168.558 74.704 168.63 74.632C168.726 74.56 168.774 74.476 168.774 74.38C168.87 74.308 168.93 74.2 168.954 74.056C168.978 73.888 169.05 73.744 169.17 73.624L169.35 73.012L171.474 72.976C171.426 73.264 171.354 73.624 171.258 74.056C171.162 74.464 170.934 75.016 170.574 75.712C170.454 76.192 170.31 76.624 170.142 77.008C169.998 77.392 169.938 77.644 169.962 77.764C169.914 77.812 169.806 78.052 169.638 78.484C169.494 78.916 169.314 79.444 169.098 80.068C168.906 80.692 168.702 81.316 168.486 81.94C168.294 82.564 168.114 83.116 167.946 83.596C167.802 84.052 167.706 84.34 167.658 84.46C167.466 84.844 167.25 85.408 167.01 86.152C166.77 86.896 166.41 87.904 165.93 89.176C165.738 89.56 165.498 90.136 165.21 90.904C164.946 91.672 164.73 92.368 164.562 92.992C164.298 93.928 164.106 94.576 163.986 94.936C163.89 95.32 163.806 95.524 163.734 95.548C163.662 95.596 163.53 95.608 163.338 95.584ZM163.626 74.128C162.954 74.152 162.45 74.116 162.114 74.02C161.802 73.924 161.694 73.684 161.79 73.3C161.862 73.012 162.018 72.796 162.258 72.652C162.498 72.508 162.846 72.4 163.302 72.328C163.566 72.28 163.902 72.22 164.31 72.148C164.742 72.076 165.15 72.004 165.534 71.932C166.326 71.836 166.974 71.752 167.478 71.68C168.006 71.608 168.546 71.548 169.098 71.5C169.65 71.452 170.346 71.404 171.186 71.356C171.882 71.308 172.47 71.272 172.95 71.248C173.454 71.2 173.706 71.176 173.706 71.176C173.778 71.176 174.03 71.2 174.462 71.248C174.894 71.296 175.362 71.356 175.866 71.428C176.37 71.5 176.742 71.584 176.982 71.68C177.534 71.8 177.93 71.968 178.17 72.184C178.434 72.4 178.614 72.712 178.71 73.12C178.782 73.408 178.782 73.588 178.71 73.66C178.638 73.708 178.506 73.78 178.314 73.876C177.762 74.044 177.354 74.128 177.09 74.128C176.826 74.128 176.526 74.068 176.19 73.948C176.07 73.828 175.926 73.72 175.758 73.624C175.614 73.528 175.35 73.456 174.966 73.408C174.606 73.336 174.03 73.276 173.238 73.228C172.566 73.3 171.978 73.336 171.474 73.336C170.97 73.336 170.718 73.396 170.718 73.516L168.594 73.624L166.83 73.804C166.59 73.828 166.254 73.864 165.822 73.912C165.39 73.936 164.97 73.972 164.562 74.02C164.154 74.044 163.842 74.08 163.626 74.128ZM176.998 94.108C175.942 94.108 175.078 93.712 174.406 92.92C173.734 92.104 173.41 91.096 173.434 89.896C173.482 89.032 173.65 88.108 173.938 87.124C174.25 86.116 174.658 85.156 175.162 84.244C175.666 83.308 176.218 82.492 176.818 81.796C177.418 81.1 178.042 80.608 178.69 80.32C178.93 80.2 179.182 80.104 179.446 80.032C179.734 79.96 180.022 79.924 180.31 79.924C180.574 79.924 180.85 79.972 181.138 80.068C181.426 80.14 181.666 80.224 181.858 80.32C182.266 80.488 182.578 80.692 182.794 80.932C183.01 81.172 183.202 81.544 183.37 82.048C183.442 82.504 183.478 82.828 183.478 83.02C183.478 83.212 183.418 83.5 183.298 83.884C183.01 84.748 182.638 85.492 182.182 86.116C181.726 86.74 181.114 87.268 180.346 87.7C180.154 87.82 179.926 87.916 179.662 87.988C179.422 88.036 179.17 88.06 178.906 88.06C178.426 88.06 177.958 87.976 177.502 87.808C177.07 87.616 176.722 87.34 176.458 86.98L176.206 86.692L176.098 86.98C175.858 87.628 175.666 88.228 175.522 88.78C175.402 89.332 175.342 89.836 175.342 90.292C175.342 90.58 175.366 90.856 175.414 91.12C175.486 91.384 175.582 91.612 175.702 91.804C175.798 91.948 175.954 92.056 176.17 92.128C176.41 92.176 176.662 92.2 176.926 92.2C177.094 92.2 177.262 92.2 177.43 92.2C177.622 92.176 177.802 92.128 177.97 92.056C178.378 91.912 178.702 91.756 178.942 91.588C179.206 91.42 179.47 91.24 179.734 91.048L179.878 90.976H179.842C180.13 90.832 180.382 90.688 180.598 90.544C180.838 90.4 180.958 90.328 180.958 90.328C181.054 90.328 181.15 90.268 181.246 90.148C181.438 90.052 181.678 90.088 181.966 90.256C182.278 90.424 182.434 90.64 182.434 90.904C182.41 91.024 182.302 91.216 182.11 91.48C181.918 91.72 181.702 91.948 181.462 92.164C181.246 92.38 181.066 92.5 180.922 92.524C180.898 92.548 180.814 92.596 180.67 92.668C180.526 92.716 180.43 92.764 180.382 92.812H180.418C180.202 93.1 179.986 93.244 179.77 93.244H179.482C179.386 93.412 179.074 93.604 178.546 93.82C178.018 94.012 177.502 94.108 176.998 94.108ZM178.618 86.188C179.05 86.188 179.422 86.068 179.734 85.828C180.07 85.564 180.358 85.276 180.598 84.964C181.078 84.316 181.354 83.692 181.426 83.092C181.522 82.468 181.45 82.036 181.21 81.796C181.066 81.724 180.934 81.688 180.814 81.688C180.718 81.664 180.514 81.7 180.202 81.796C179.986 81.844 179.686 82.024 179.302 82.336C178.918 82.648 178.534 82.996 178.15 83.38C177.79 83.764 177.514 84.088 177.322 84.352L176.854 85.108C177.046 85.036 177.226 85 177.394 85C177.586 84.976 177.694 84.988 177.718 85.036C177.718 85.252 177.754 85.456 177.826 85.648C177.922 85.816 178.03 85.948 178.15 86.044C178.294 86.14 178.45 86.188 178.618 86.188ZM189.173 93.604C188.477 93.724 187.841 93.688 187.265 93.496C186.689 93.28 186.221 92.932 185.861 92.452C185.525 91.948 185.357 91.312 185.357 90.544C185.285 89.824 185.369 88.996 185.609 88.06C185.849 87.1 186.197 86.14 186.653 85.18C187.133 84.22 187.649 83.392 188.201 82.696C188.681 82.12 189.161 81.592 189.641 81.112C190.121 80.632 190.553 80.308 190.937 80.14C191.273 79.996 191.585 79.912 191.873 79.888C192.185 79.84 192.437 79.816 192.629 79.816C193.013 79.912 193.421 80.092 193.853 80.356C194.309 80.596 194.537 80.86 194.537 81.148C194.537 81.148 194.561 81.184 194.609 81.256C194.681 81.304 194.717 81.328 194.717 81.328C194.861 81.328 194.981 81.484 195.077 81.796C195.197 82.108 195.269 82.468 195.293 82.876C195.317 83.26 195.257 83.584 195.113 83.848C195.017 84.304 194.849 84.7 194.609 85.036C194.369 85.372 194.153 85.54 193.961 85.54C193.865 85.54 193.769 85.552 193.673 85.576C193.601 85.576 193.565 85.636 193.565 85.756C193.565 85.876 193.493 85.924 193.349 85.9C193.229 85.876 193.097 85.804 192.953 85.684C192.809 85.54 192.701 85.372 192.629 85.18C192.629 85.06 192.677 84.856 192.773 84.568C192.869 84.28 192.965 83.908 193.061 83.452C193.205 82.78 193.193 82.348 193.025 82.156C192.857 81.94 192.533 81.928 192.053 82.12C191.453 82.456 190.877 82.924 190.325 83.524C189.797 84.124 189.305 84.904 188.849 85.864C188.393 86.8 187.985 87.976 187.625 89.392C187.481 89.944 187.421 90.424 187.445 90.832C187.493 91.24 187.553 91.456 187.625 91.48C187.961 91.576 188.417 91.6 188.993 91.552C189.569 91.48 189.989 91.372 190.253 91.228C190.637 91.036 191.069 90.784 191.549 90.472C192.029 90.136 192.449 89.836 192.809 89.572C192.929 89.5 193.073 89.38 193.241 89.212C193.409 89.044 193.589 88.912 193.781 88.816C193.973 88.528 194.141 88.36 194.285 88.312C194.429 88.264 194.645 88.24 194.933 88.24C195.125 88.288 195.305 88.36 195.473 88.456C195.641 88.552 195.749 88.648 195.797 88.744C195.869 88.84 195.833 88.924 195.689 88.996C195.593 88.996 195.533 89.032 195.509 89.104C195.509 89.152 195.509 89.176 195.509 89.176C195.557 89.272 195.449 89.476 195.185 89.788C194.945 90.076 194.633 90.4 194.249 90.76C193.865 91.12 193.493 91.432 193.133 91.696C192.797 91.936 192.557 92.056 192.413 92.056C192.173 92.056 192.053 92.128 192.053 92.272C192.053 92.32 191.873 92.44 191.513 92.632C191.177 92.824 190.781 93.016 190.325 93.208C189.893 93.4 189.509 93.532 189.173 93.604ZM209.386 92.884C208.786 93.172 208.246 93.256 207.766 93.136C207.286 92.992 206.902 92.668 206.614 92.164C206.35 91.66 206.218 91.024 206.218 90.256C206.218 89.992 206.254 89.596 206.326 89.068C206.422 88.54 206.53 87.988 206.65 87.412C206.77 86.812 206.902 86.296 207.046 85.864C207.118 85.648 207.166 85.48 207.19 85.36C207.238 85.24 207.214 85.18 207.118 85.18C207.022 85.18 206.902 85.24 206.758 85.36C206.638 85.48 206.542 85.576 206.47 85.648C205.942 86.08 205.39 86.608 204.814 87.232C204.262 87.856 203.746 88.492 203.266 89.14C202.786 89.764 202.39 90.34 202.078 90.868C201.79 91.396 201.646 91.78 201.646 92.02C201.646 92.38 201.466 92.632 201.106 92.776C200.746 92.92 200.434 92.908 200.17 92.74C199.714 92.476 199.426 92.164 199.306 91.804C199.21 91.42 199.198 90.784 199.27 89.896C199.342 88.768 199.438 87.76 199.558 86.872C199.678 85.984 199.87 85.024 200.134 83.992C200.422 82.936 200.794 81.652 201.25 80.14C201.562 79.3 201.85 78.508 202.114 77.764C202.378 76.996 202.606 76.348 202.798 75.82C203.014 75.292 203.146 74.968 203.194 74.848C203.314 74.728 203.47 74.44 203.662 73.984C203.854 73.504 204.022 73.024 204.166 72.544C204.334 72.064 204.418 71.776 204.418 71.68C204.418 71.488 204.454 71.32 204.526 71.176C204.598 71.008 204.682 70.876 204.778 70.78C204.874 70.684 204.958 70.6 205.03 70.528C205.102 70.456 205.138 70.42 205.138 70.42C205.258 70.42 205.402 70.456 205.57 70.528C205.762 70.6 205.942 70.708 206.11 70.852C206.278 70.972 206.386 71.128 206.434 71.32C206.602 71.656 206.686 72.004 206.686 72.364C206.686 72.7 206.578 73.12 206.362 73.624C206.17 74.128 205.834 74.824 205.354 75.712C204.97 76.456 204.622 77.224 204.31 78.016C203.998 78.808 203.698 79.636 203.41 80.5C203.29 80.86 203.122 81.364 202.906 82.012C202.714 82.66 202.51 83.332 202.294 84.028C202.102 84.724 201.934 85.348 201.79 85.9C201.67 86.428 201.61 86.764 201.61 86.908C201.61 87.076 201.706 87.16 201.898 87.16C202.09 87.136 202.282 86.992 202.474 86.728C202.57 86.536 202.774 86.296 203.086 86.008C203.398 85.72 203.65 85.492 203.842 85.324C204.034 85.156 204.298 84.916 204.634 84.604C204.97 84.292 205.33 83.98 205.714 83.668C206.098 83.332 206.458 83.056 206.794 82.84C207.13 82.6 207.394 82.48 207.586 82.48C207.898 82.48 208.186 82.6 208.45 82.84C208.714 83.056 208.894 83.296 208.99 83.56C209.062 83.632 209.134 83.728 209.206 83.848C209.278 83.944 209.326 84.016 209.35 84.064C209.47 84.16 209.47 84.58 209.35 85.324C209.254 86.044 209.014 86.98 208.63 88.132C208.414 89.02 208.234 89.776 208.09 90.4C207.97 91 208.006 91.3 208.198 91.3C208.198 91.3 208.318 91.228 208.558 91.084C208.822 90.94 209.098 90.784 209.386 90.616C210.082 90.16 210.682 89.896 211.186 89.824C211.714 89.728 211.978 89.812 211.978 90.076C211.978 90.172 211.942 90.268 211.87 90.364C211.798 90.436 211.762 90.52 211.762 90.616C211.762 90.616 211.762 90.628 211.762 90.652C211.762 90.652 211.762 90.7 211.762 90.796C211.762 90.844 211.606 91.036 211.294 91.372C210.982 91.684 210.634 92.008 210.25 92.344C209.89 92.656 209.602 92.836 209.386 92.884ZM216.121 92.416C216.025 92.416 215.881 92.356 215.689 92.236C215.521 92.092 215.389 91.972 215.293 91.876C215.125 91.684 215.017 91.492 214.969 91.3C214.945 91.108 214.933 90.676 214.933 90.004C214.933 89.236 215.089 88.408 215.401 87.52C215.713 86.608 216.241 85.336 216.985 83.704L218.173 81.184C218.269 80.992 218.353 80.848 218.425 80.752C218.521 80.656 218.605 80.56 218.677 80.464C218.773 80.464 218.857 80.464 218.929 80.464C219.001 80.464 219.037 80.464 219.037 80.464C219.229 80.464 219.421 80.584 219.613 80.824C219.805 81.04 219.949 81.28 220.045 81.544C220.045 81.856 219.997 82.18 219.901 82.516C219.829 82.852 219.541 83.356 219.037 84.028C218.869 84.292 218.641 84.736 218.353 85.36C218.089 85.984 217.909 86.524 217.813 86.98C217.789 87.004 217.741 87.112 217.669 87.304C217.597 87.472 217.513 87.664 217.417 87.88C217.345 88.096 217.261 88.3 217.165 88.492L216.985 89.284L219.397 86.8C220.525 85.672 221.437 84.868 222.133 84.388C222.829 83.908 223.381 83.704 223.789 83.776C224.197 83.848 224.545 84.172 224.833 84.748C225.001 85.012 225.121 85.252 225.193 85.468C225.289 85.66 225.349 85.924 225.373 86.26C225.397 86.596 225.373 87.1 225.301 87.772V90.004C225.661 89.908 225.949 89.824 226.165 89.752C226.381 89.656 226.609 89.56 226.849 89.464C227.065 89.368 227.317 89.284 227.605 89.212C227.893 89.116 228.253 89.056 228.685 89.032C228.661 89.344 228.553 89.68 228.361 90.04C228.169 90.376 227.929 90.7 227.641 91.012C227.353 91.324 227.029 91.576 226.669 91.768C226.333 91.96 225.997 92.056 225.661 92.056C225.349 92.056 225.001 91.9 224.617 91.588C224.233 91.276 223.957 90.928 223.789 90.544C223.693 90.28 223.633 89.992 223.609 89.68C223.609 89.368 223.609 88.792 223.609 87.952V86.62C223.609 86.236 223.489 86.128 223.249 86.296C223.033 86.44 222.853 86.572 222.709 86.692C222.349 87.004 221.965 87.364 221.557 87.772C221.173 88.18 220.777 88.6 220.369 89.032C219.265 90.184 218.341 91.036 217.597 91.588C216.877 92.14 216.385 92.416 216.121 92.416ZM234.236 93.784C233.924 93.808 233.672 93.784 233.48 93.712C233.288 93.616 233.048 93.484 232.76 93.316C232.232 92.908 231.836 92.5 231.572 92.092C231.332 91.66 231.224 91.24 231.248 90.832C231.296 90.616 231.296 90.424 231.248 90.256C231.224 90.088 231.212 90.004 231.212 90.004C231.068 89.884 231.02 89.812 231.068 89.788C231.116 89.74 231.152 89.668 231.176 89.572C231.368 89.524 231.392 89.392 231.248 89.176C231.176 88.984 231.212 88.552 231.356 87.88C231.524 87.184 231.74 86.536 232.004 85.936C232.124 85.672 232.292 85.324 232.508 84.892C232.748 84.46 233.012 84.028 233.3 83.596C233.588 83.14 233.852 82.78 234.092 82.516C234.62 81.916 235.088 81.472 235.496 81.184C235.928 80.872 236.408 80.62 236.936 80.428C237.416 80.236 237.764 80.128 237.98 80.104C238.196 80.08 238.496 80.224 238.88 80.536C239.456 80.704 239.888 80.944 240.176 81.256C240.488 81.544 240.728 82 240.896 82.624C241.088 83.32 241.148 84.148 241.076 85.108C241.028 86.044 240.62 87.256 239.852 88.744C239.396 89.68 238.94 90.388 238.484 90.868C238.052 91.348 237.524 91.852 236.9 92.38C236.444 92.764 236.024 93.064 235.64 93.28C235.256 93.496 234.788 93.664 234.236 93.784ZM237.116 89.5C237.596 88.78 237.968 88.12 238.232 87.52C238.52 86.896 238.748 86.116 238.916 85.18C238.964 84.916 238.976 84.592 238.952 84.208C238.928 83.8 238.868 83.428 238.772 83.092C238.7 82.756 238.592 82.576 238.448 82.552C238.136 82.432 237.788 82.432 237.404 82.552C237.02 82.648 236.6 82.936 236.144 83.416C235.736 83.896 235.364 84.436 235.028 85.036C234.716 85.636 234.428 86.296 234.164 87.016C233.9 87.736 233.648 88.504 233.408 89.32C233.168 90.232 233.18 90.928 233.444 91.408C233.732 91.888 234.2 92.008 234.848 91.768C235.496 91.504 236.252 90.748 237.116 89.5ZM244.372 94C243.916 94.12 243.544 94.024 243.256 93.712C242.992 93.4 242.836 92.92 242.788 92.272C242.74 91.624 242.812 90.856 243.004 89.968C243.124 89.68 243.22 89.404 243.292 89.14C243.364 88.852 243.4 88.624 243.4 88.456C243.448 88.216 243.544 87.868 243.688 87.412C243.832 86.932 243.988 86.44 244.156 85.936C244.324 85.432 244.48 84.988 244.624 84.604C244.792 84.196 244.9 83.944 244.948 83.848C245.044 83.848 245.128 83.764 245.2 83.596C245.272 83.428 245.308 83.26 245.308 83.092C245.308 82.9 245.344 82.684 245.416 82.444C245.512 82.204 245.608 82.036 245.704 81.94C245.704 81.82 245.728 81.688 245.776 81.544C245.848 81.376 245.884 81.244 245.884 81.148C245.884 81.052 245.908 80.956 245.956 80.86C246.028 80.764 246.064 80.668 246.064 80.572C246.232 80.26 246.448 79.768 246.712 79.096C247 78.4 247.3 77.632 247.612 76.792C247.948 75.952 248.26 75.124 248.548 74.308C248.836 73.492 249.064 72.808 249.232 72.256C249.424 71.68 249.52 71.332 249.52 71.212C249.52 71.02 249.568 70.876 249.664 70.78C249.76 70.684 249.904 70.636 250.096 70.636C250.168 70.564 250.252 70.516 250.348 70.492C250.468 70.468 250.576 70.456 250.672 70.456C250.672 70.456 250.72 70.504 250.816 70.6C250.912 70.696 251.056 70.84 251.248 71.032C251.44 71.2 251.548 71.392 251.572 71.608C251.62 71.824 251.644 72.076 251.644 72.364C251.644 72.676 251.608 72.952 251.536 73.192C251.464 73.432 251.32 73.78 251.104 74.236C250.888 74.692 250.552 75.4 250.096 76.36C249.904 76.84 249.7 77.296 249.484 77.728C249.268 78.136 249.16 78.388 249.16 78.484C249.16 78.58 249.112 78.724 249.016 78.916C248.944 79.108 248.86 79.348 248.764 79.636C248.668 79.828 248.536 80.116 248.368 80.5C248.2 80.86 248.02 81.256 247.828 81.688C247.66 82.096 247.516 82.456 247.396 82.768C247.276 83.056 247.216 83.224 247.216 83.272C247.216 83.368 247.204 83.464 247.18 83.56C247.18 83.656 247.132 83.752 247.036 83.848C246.94 83.848 246.88 83.92 246.856 84.064C246.856 84.184 246.856 84.244 246.856 84.244C246.856 84.484 246.664 85.12 246.28 86.152C245.896 87.472 245.536 88.684 245.2 89.788C244.888 90.892 244.732 91.78 244.732 92.452C244.732 93.028 244.72 93.412 244.696 93.604C244.672 93.772 244.564 93.904 244.372 94ZM251.858 93.46C251.546 93.46 251.294 93.4 251.102 93.28C250.934 93.16 250.718 92.992 250.454 92.776C249.998 92.296 249.674 91.84 249.482 91.408C249.29 90.952 249.23 90.52 249.302 90.112C249.374 89.92 249.398 89.74 249.374 89.572C249.374 89.38 249.374 89.284 249.374 89.284C249.254 89.164 249.218 89.092 249.266 89.068C249.314 89.02 249.362 88.948 249.41 88.852C249.554 88.852 249.602 88.72 249.554 88.456C249.506 88.264 249.602 87.844 249.842 87.196C250.082 86.548 250.382 85.936 250.742 85.36C250.886 85.12 251.102 84.808 251.39 84.424C251.678 84.016 251.99 83.62 252.326 83.236C252.686 82.828 253.01 82.504 253.298 82.264C253.898 81.76 254.426 81.388 254.882 81.148C255.338 80.908 255.83 80.728 256.358 80.608C256.886 80.488 257.246 80.428 257.438 80.428C257.654 80.428 257.942 80.62 258.302 81.004C258.854 81.244 259.25 81.532 259.49 81.868C259.754 82.204 259.922 82.696 259.994 83.344C260.066 84.064 260.006 84.892 259.814 85.828C259.646 86.74 259.082 87.88 258.122 89.248C257.522 90.112 256.97 90.76 256.466 91.192C255.962 91.6 255.362 92.008 254.666 92.416C254.162 92.752 253.706 93.004 253.298 93.172C252.89 93.316 252.41 93.412 251.858 93.46ZM255.314 89.644C255.89 88.996 256.346 88.384 256.682 87.808C257.042 87.232 257.378 86.5 257.69 85.612C257.786 85.348 257.846 85.024 257.87 84.64C257.894 84.232 257.882 83.86 257.834 83.524C257.81 83.164 257.726 82.96 257.582 82.912C257.294 82.744 256.946 82.696 256.538 82.768C256.13 82.816 255.686 83.044 255.206 83.452C254.462 84.076 253.814 84.856 253.262 85.792C252.71 86.704 252.17 87.748 251.642 88.924C251.282 89.788 251.198 90.484 251.39 91.012C251.606 91.516 252.05 91.696 252.722 91.552C253.418 91.384 254.282 90.748 255.314 89.644ZM265.161 100.768C264.897 100.792 264.489 100.732 263.937 100.588C263.409 100.444 263.013 100.312 262.749 100.192C262.437 99.952 262.125 99.628 261.813 99.22C261.501 98.812 261.249 98.392 261.057 97.96C260.889 97.552 260.817 97.24 260.841 97.024C260.865 96.832 261.045 96.796 261.381 96.916C261.741 97.036 261.981 97.192 262.101 97.384C262.317 97.648 262.569 97.9 262.857 98.14C263.145 98.38 263.433 98.56 263.721 98.68C264.009 98.824 264.237 98.884 264.405 98.86C265.005 98.764 265.497 98.464 265.881 97.96C266.289 97.48 266.649 96.868 266.961 96.124C267.153 95.596 267.297 95.152 267.393 94.792C267.513 94.456 267.621 94.072 267.717 93.64C267.837 93.208 267.981 92.608 268.149 91.84C268.365 90.976 268.509 90.364 268.581 90.004C268.677 89.62 268.725 89.368 268.725 89.248C268.725 89.128 268.689 89.044 268.617 88.996C268.617 88.996 268.461 89.08 268.149 89.248C267.837 89.416 267.489 89.596 267.105 89.788C266.745 89.98 266.469 90.136 266.277 90.256C265.605 90.472 264.945 90.604 264.297 90.652C263.649 90.7 263.145 90.664 262.785 90.544C262.617 90.472 262.437 90.304 262.245 90.04C262.077 89.776 261.933 89.488 261.813 89.176C261.717 88.84 261.681 88.552 261.705 88.312C261.729 88.12 261.837 87.832 262.029 87.448C262.221 87.064 262.437 86.656 262.677 86.224C262.941 85.792 263.169 85.432 263.361 85.144C263.577 84.832 263.709 84.676 263.757 84.676C263.853 84.676 263.901 84.64 263.901 84.568C263.925 84.496 263.937 84.412 263.937 84.316C263.961 84.22 264.141 84.016 264.477 83.704C264.837 83.368 265.317 82.96 265.917 82.48C266.757 81.712 267.513 81.124 268.185 80.716C268.857 80.308 269.481 80.08 270.057 80.032C270.225 80.056 270.381 80.068 270.525 80.068C270.693 80.068 270.777 80.068 270.777 80.068C270.777 80.068 270.849 80.116 270.993 80.212C271.161 80.284 271.377 80.38 271.641 80.5C272.001 80.644 272.325 80.896 272.613 81.256C272.901 81.592 273.129 81.988 273.297 82.444C273.489 82.876 273.597 83.308 273.621 83.74C273.597 84.268 273.477 84.784 273.261 85.288C273.069 85.792 272.877 86.032 272.685 86.008C272.493 85.984 272.253 86.068 271.965 86.26C271.701 86.452 271.569 86.596 271.569 86.692C271.569 86.788 271.533 86.908 271.461 87.052C271.413 87.196 271.257 87.424 270.993 87.736C270.969 87.856 270.897 88.18 270.777 88.708C270.681 89.212 270.561 89.788 270.417 90.436C270.273 91.084 270.141 91.672 270.021 92.2C269.925 92.704 269.865 93.028 269.841 93.172C269.817 93.268 269.757 93.484 269.661 93.82C269.589 94.132 269.481 94.492 269.337 94.9C269.217 95.308 269.085 95.692 268.941 96.052C268.845 96.748 268.713 97.264 268.545 97.6C268.401 97.96 268.161 98.344 267.825 98.752C267.465 99.352 267.033 99.82 266.529 100.156C266.025 100.516 265.569 100.72 265.161 100.768ZM263.685 88.672C263.733 88.912 264.057 88.996 264.657 88.924C265.257 88.828 265.857 88.624 266.457 88.312C266.985 88.048 267.465 87.832 267.897 87.664C268.329 87.496 268.629 87.256 268.797 86.944C268.941 86.704 269.061 86.464 269.157 86.224C269.253 85.984 269.373 85.636 269.517 85.18C269.541 85.084 269.601 84.976 269.697 84.856C269.817 84.712 269.925 84.628 270.021 84.604C270.117 84.58 270.213 84.58 270.309 84.604C270.429 84.628 270.573 84.676 270.741 84.748C270.861 84.7 270.945 84.58 270.993 84.388C271.065 84.196 271.077 83.98 271.029 83.74C271.005 83.572 270.885 83.344 270.669 83.056C270.453 82.768 270.177 82.54 269.841 82.372C269.481 82.18 269.061 82.3 268.581 82.732C268.101 83.164 267.513 83.692 266.817 84.316C266.265 84.82 265.737 85.348 265.233 85.9C264.729 86.452 264.321 86.968 264.009 87.448C263.721 87.928 263.613 88.336 263.685 88.672ZM276.662 92.884C276.302 92.836 275.99 92.584 275.726 92.128C275.486 91.648 275.342 91.216 275.294 90.832C275.318 90.64 275.342 90.364 275.366 90.004C275.414 89.644 275.462 89.272 275.51 88.888C275.606 88.432 275.738 87.88 275.906 87.232C276.074 86.56 276.242 85.888 276.41 85.216C276.602 84.544 276.77 83.968 276.914 83.488C277.058 83.008 277.154 82.72 277.202 82.624C277.322 82.432 277.514 82.384 277.778 82.48C278.042 82.576 278.258 82.72 278.426 82.912C278.57 83.104 278.654 83.332 278.678 83.596C278.726 83.86 278.69 84.244 278.57 84.748C278.474 85.252 278.282 85.996 277.994 86.98C277.73 87.94 277.526 88.72 277.382 89.32C277.262 89.896 277.214 90.508 277.238 91.156C277.142 91.972 277.07 92.476 277.022 92.668C276.974 92.836 276.854 92.908 276.662 92.884ZM280.802 78.52C280.706 78.592 280.61 78.628 280.514 78.628C280.442 78.604 280.31 78.532 280.118 78.412C279.95 78.388 279.734 78.28 279.47 78.088C279.23 77.872 279.014 77.656 278.822 77.44C278.654 77.2 278.57 77.056 278.57 77.008C278.546 76.768 278.558 76.468 278.606 76.108C278.678 75.724 278.81 75.388 279.002 75.1C279.194 74.788 279.47 74.62 279.83 74.596C279.926 74.596 280.01 74.608 280.082 74.632C280.154 74.656 280.37 74.74 280.73 74.884C280.922 75.244 281.114 75.652 281.306 76.108C281.498 76.54 281.582 76.972 281.558 77.404C281.534 77.812 281.282 78.184 280.802 78.52ZM284.097 93.136C283.161 92.752 282.549 92.224 282.261 91.552C281.997 90.856 281.949 89.788 282.117 88.348C282.165 87.604 282.189 87.112 282.189 86.872C282.189 86.632 282.057 86.392 281.793 86.152C281.721 86.056 281.589 85.924 281.397 85.756C281.229 85.588 281.157 85.444 281.181 85.324C281.157 85.156 281.169 84.976 281.217 84.784C281.265 84.568 281.337 84.46 281.433 84.46C281.529 84.46 281.625 84.436 281.721 84.388C281.841 84.34 281.949 84.34 282.045 84.388C282.141 84.388 282.249 84.4 282.369 84.424C282.489 84.448 282.549 84.508 282.549 84.604C282.645 84.772 282.801 84.796 283.017 84.676C283.233 84.532 283.461 84.22 283.701 83.74C283.941 83.356 284.253 82.972 284.637 82.588C285.045 82.204 285.441 81.856 285.825 81.544C286.233 81.208 286.569 80.968 286.833 80.824C286.953 80.776 287.133 80.716 287.373 80.644C287.613 80.572 287.865 80.512 288.129 80.464C288.417 80.416 288.657 80.404 288.849 80.428C289.281 80.452 289.641 80.572 289.929 80.788C290.241 81.004 290.529 81.256 290.793 81.544C291.105 81.76 291.297 82.048 291.369 82.408C291.465 82.768 291.489 83.152 291.441 83.56C291.393 83.968 291.285 84.34 291.117 84.676C291.045 84.916 290.841 85.204 290.505 85.54C290.169 85.876 289.785 86.2 289.353 86.512C288.921 86.824 288.525 87.052 288.165 87.196C287.853 87.268 287.445 87.328 286.941 87.376C286.461 87.424 286.005 87.448 285.573 87.448C285.165 87.424 284.889 87.376 284.745 87.304C284.577 87.208 284.445 87.34 284.349 87.7C284.253 88.06 284.181 88.576 284.133 89.248C284.085 89.776 284.085 90.16 284.133 90.4C284.181 90.64 284.229 90.808 284.277 90.904C284.445 91.072 284.673 91.288 284.961 91.552C285.273 91.792 285.705 91.828 286.257 91.66C286.713 91.54 287.157 91.228 287.589 90.724C288.045 90.22 288.465 89.812 288.849 89.5C288.945 89.332 289.101 89.236 289.317 89.212C289.557 89.164 289.809 89.176 290.073 89.248C290.337 89.416 290.445 89.62 290.397 89.86C290.373 90.076 290.253 90.412 290.037 90.868C289.965 91.036 289.797 91.252 289.533 91.516C289.293 91.756 289.017 92.008 288.705 92.272C288.417 92.512 288.153 92.704 287.913 92.848C287.193 93.232 286.521 93.436 285.897 93.46C285.273 93.46 284.673 93.352 284.097 93.136ZM286.221 85.828C286.749 85.708 287.169 85.624 287.481 85.576C287.793 85.528 288.093 85.396 288.381 85.18C288.669 84.94 289.029 84.496 289.461 83.848C289.557 83.584 289.581 83.32 289.533 83.056C289.509 82.792 289.449 82.612 289.353 82.516C289.137 82.276 288.873 82.204 288.561 82.3C288.273 82.372 287.997 82.504 287.733 82.696C287.565 82.768 287.313 82.948 286.977 83.236C286.665 83.5 286.353 83.812 286.041 84.172C285.729 84.508 285.477 84.82 285.285 85.108C285.093 85.396 285.045 85.564 285.141 85.612C285.093 85.708 285.225 85.768 285.537 85.792C285.873 85.816 286.101 85.828 286.221 85.828ZM296.596 93.496C295.396 93.496 294.52 93.064 293.968 92.2C293.8 91.96 293.716 91.72 293.716 91.48C293.74 91.216 293.812 91.036 293.932 90.94C294.076 90.844 294.244 90.928 294.436 91.192C294.772 91.384 295.252 91.48 295.876 91.48C296.188 91.48 296.512 91.456 296.848 91.408C297.184 91.336 297.52 91.24 297.856 91.12C298.216 90.952 298.456 90.808 298.576 90.688C298.696 90.544 298.672 90.424 298.504 90.328H298.54C297.916 90.16 297.28 89.896 296.632 89.536C296.008 89.152 295.468 88.744 295.012 88.312C294.556 87.856 294.292 87.448 294.22 87.088C294.028 86.344 294.076 85.588 294.364 84.82C294.652 84.028 295.06 83.332 295.588 82.732C295.78 82.612 296.02 82.468 296.308 82.3C296.596 82.108 296.824 82 296.992 81.976V82.012C297.448 81.532 298 81.148 298.648 80.86C299.32 80.572 300.028 80.308 300.772 80.068L301.312 79.996C301.6 79.948 301.84 79.924 302.032 79.924C302.008 79.924 302.056 79.948 302.176 79.996C302.296 80.02 302.404 80.044 302.5 80.068C302.644 80.14 302.764 80.176 302.86 80.176C303.172 80.224 303.46 80.368 303.724 80.608C303.988 80.848 304.192 81.136 304.336 81.472C304.504 81.784 304.564 82.084 304.516 82.372C304.468 82.828 304.324 83.236 304.084 83.596C303.868 83.956 303.604 84.16 303.292 84.208C303.34 84.184 303.304 84.148 303.184 84.1C303.088 84.028 302.98 83.956 302.86 83.884L302.752 83.956C302.752 83.956 302.74 83.932 302.716 83.884C302.716 83.812 302.692 83.728 302.644 83.632C302.572 83.488 302.536 83.332 302.536 83.164C302.536 82.972 302.548 82.768 302.572 82.552C302.62 82.288 302.62 82.132 302.572 82.084C302.548 82.036 302.392 82 302.104 81.976C301.768 81.904 301.276 81.964 300.628 82.156C300.004 82.348 299.476 82.612 299.044 82.948C298.516 83.284 298.072 83.608 297.712 83.92C297.352 84.208 297.064 84.496 296.848 84.784C296.632 85.048 296.44 85.36 296.272 85.72C296.152 85.888 296.044 86.056 295.948 86.224C295.876 86.368 295.84 86.5 295.84 86.62C295.84 86.884 296.032 87.16 296.416 87.448C296.824 87.712 297.424 88.024 298.216 88.384C298.84 88.648 299.368 88.936 299.8 89.248C300.232 89.56 300.532 89.92 300.7 90.328C300.748 90.424 300.76 90.544 300.736 90.688C300.736 90.808 300.712 90.892 300.664 90.94C300.712 90.988 300.736 91.024 300.736 91.048V91.012C300.928 91.3 300.928 91.6 300.736 91.912C300.568 92.224 300.268 92.5 299.836 92.74C299.428 92.956 298.924 93.124 298.324 93.244H298.36C298.048 93.34 297.736 93.412 297.424 93.46C297.136 93.484 296.86 93.496 296.596 93.496Z" fill="#22D3EE"/>
<path d="M305.62 34.9597C305.334 35.4299 305.483 36.0486 305.954 36.3416L313.619 41.1161C314.089 41.4091 314.702 41.2654 314.988 40.7952C315.275 40.325 315.125 39.7063 314.655 39.4134L307.841 35.1693L311.986 28.3584C312.272 27.8883 312.122 27.2696 311.652 26.9766C311.182 26.6836 310.568 26.8272 310.282 27.2974L305.62 34.9597ZM306.568 35.4675L306.804 36.4446L307.05 36.387L307.238 36.2181L306.568 35.4675ZM307.132 34.9597L306.463 34.2091L307.132 34.9597ZM308.131 34.5861L308.414 33.6272L308.131 34.5861ZM309.002 34.8543L308.719 35.8132L309.002 34.8543ZM309.757 34.7456L309.151 33.9425L309.757 34.7456ZM310.397 34.2599L309.791 33.4568L310.397 34.2599ZM311.102 34.0528L311.183 33.0539L311.102 34.0528ZM311.873 34.1241L311.792 35.123L311.873 34.1241ZM312.618 34.0551L312.904 35.0191L312.618 34.0551ZM312.978 33.9505L312.692 32.9865L312.978 33.9505ZM313.338 33.8458L313.624 34.8098L313.338 33.8458ZM314.071 33.8381L313.832 34.8092L314.071 33.8381ZM314.818 34.0319L315.057 33.0608L314.818 34.0319ZM315.573 33.9154L316.064 34.7934L315.573 33.9154ZM315.954 33.7019L316.446 34.5799L315.954 33.7019ZM316.336 33.4884L315.845 32.6103L316.336 33.4884ZM317.071 33.4854L317.572 32.6238L317.071 33.4854ZM317.424 33.696L317.926 32.8343L317.424 33.696ZM317.778 33.9065L317.277 34.7682L317.778 33.9065ZM318.541 34.0351L318.745 35.0191L318.541 34.0351ZM318.951 33.9531L319.155 34.9371L318.951 33.9531ZM319.361 33.8712L319.156 32.8872L319.361 33.8712ZM320.077 34.0644L320.736 33.3187L320.077 34.0644ZM320.384 34.3396L319.726 35.0853L320.384 34.3396ZM320.691 34.6147L321.35 33.869L320.691 34.6147ZM321.383 34.9707L321.19 35.9526L321.383 34.9707ZM322.154 35.1324L321.961 36.1143L322.154 35.1324ZM322.879 35.4073L323.364 34.5363L322.879 35.4073ZM323.558 35.7953L324.043 34.9243L323.558 35.7953ZM324.137 36.3037L324.926 35.6991L324.137 36.3037ZM324.616 36.9325L323.827 37.5371L324.616 36.9325ZM325.099 37.5416L324.336 38.1791L325.099 37.5416ZM325.588 38.131L326.351 37.4935L325.588 38.131ZM325.918 38.8183L324.945 39.0244L325.918 38.8183ZM326.004 39.2109L326.977 39.0048L326.004 39.2109ZM326.09 39.6034L327.064 39.3973L326.09 39.6034ZM326.315 40.334L325.394 40.7078L326.315 40.334ZM326.592 41.0101L327.513 40.6363L326.592 41.0101ZM327.005 41.6375L326.288 42.3263L327.005 41.6375ZM327.28 41.9267L327.997 41.2379L327.28 41.9267ZM327.554 42.216L326.837 42.9049L327.554 42.216ZM327.92 42.8711L328.887 42.6382L327.92 42.8711ZM328.101 43.6027L329.068 43.3698L328.101 43.6027ZM328.365 44.3203L327.474 44.7587L328.365 44.3203ZM328.713 45.0237L329.605 44.5852L328.713 45.0237ZM328.984 45.7505L328.02 45.9958L328.984 45.7505ZM329.18 46.5007L330.144 46.2555L329.18 46.5007ZM329.095 48.0411L330.079 48.2085L329.095 48.0411ZM328.898 48.8036L329.836 49.1554L328.898 48.8036ZM328.763 49.1778L327.826 48.826L328.763 49.1778ZM328.621 50.3051L329.564 49.9919L328.621 50.3051ZM329.018 51.8246L328.021 51.8494L329.018 51.8246ZM329.045 52.5895L330.041 52.5648L329.045 52.5895ZM329.047 53.3554L328.051 53.3166L329.047 53.3554ZM329.037 53.739L330.033 53.7778L329.037 53.739ZM329.026 54.1225L330.023 54.1614L329.026 54.1225ZM328.541 55.5652L329.45 55.9859L328.541 55.5652ZM328.379 56.3052L329.376 56.3235L328.379 56.3052ZM328.374 57.0789L327.377 57.0605L328.374 57.0789ZM328.297 57.8361L329.274 58.0445L328.297 57.8361ZM327.821 59.2663L327.039 58.6359L327.821 59.2663ZM327.316 59.9042L328.098 60.5346L327.316 59.9042ZM326.877 60.5583L327.749 61.0544L326.877 60.5583ZM326.692 60.8933L327.563 61.3895L326.692 60.8933ZM326.506 61.2284L325.634 60.7322L326.506 61.2284ZM326.111 62.2704L327.067 62.5652L326.111 62.2704ZM326.018 63.4215L325.054 63.6655L326.018 63.4215ZM326.134 63.8657L327.098 63.6217L326.134 63.8657ZM326.249 64.3099L325.285 64.5539L326.249 64.3099ZM326.172 65.0785L327.029 65.5998L326.172 65.0785ZM325.787 65.7272L324.93 65.2059L325.787 65.7272ZM325.289 67.1599L326.25 67.4373L325.289 67.1599ZM325.031 67.8661L325.934 68.3L325.031 67.8661ZM324.874 68.2029L325.777 68.6368L324.874 68.2029ZM324.717 68.5397L323.813 68.1057L324.717 68.5397ZM324.31 69.1785L325.079 69.825L324.31 69.1785ZM323.81 69.7827L323.041 69.1362L323.81 69.7827ZM323.419 70.4276L322.498 70.0338L323.419 70.4276ZM323.135 71.1133L324.056 71.5071L323.135 71.1133ZM322.829 71.7939L323.725 72.2433L322.829 71.7939ZM322.5 72.4692L323.396 72.9186L322.5 72.4692ZM321.327 74.8018L321.867 75.6509L321.327 74.8018ZM320.513 75.6411L319.545 75.3937L320.513 75.6411ZM320.33 76.3992L321.298 76.6466L320.33 76.3992ZM320.015 77.0763L320.815 77.6846L320.015 77.0763ZM319.57 77.6724L318.771 77.0642L319.57 77.6724ZM319.174 79.1811L320.16 79.335L319.174 79.1811ZM318.996 79.6341L319.385 80.5621L318.996 79.6341ZM318.877 79.6835L318.945 80.685L319.112 80.6754L319.265 80.6116L318.877 79.6835ZM318.686 79.6946L318.618 78.6931L318.069 78.7249L317.808 79.2099L318.686 79.6946ZM317.761 79.2977C317.5 79.7827 317.682 80.393 318.166 80.6607C318.651 80.9284 319.256 80.7522 319.517 80.2671L318.639 79.7824L317.761 79.2977ZM306.472 35.4902L306.707 36.4673L306.804 36.4446L306.568 35.4675L306.332 34.4904L306.236 34.5131L306.472 35.4902ZM306.568 35.4675L307.238 36.2181L307.801 35.7104L307.132 34.9597L306.463 34.2091L305.899 34.7169L306.568 35.4675ZM307.132 34.9597L307.801 35.7104C307.865 35.6533 307.916 35.6146 307.955 35.5891C307.994 35.5635 308.016 35.5547 308.02 35.5532C308.023 35.5519 308.006 35.5588 307.972 35.5607C307.936 35.5627 307.893 35.5586 307.849 35.545L308.131 34.5861L308.414 33.6272C307.61 33.3797 306.918 33.7994 306.463 34.2091L307.132 34.9597ZM308.131 34.5861L307.849 35.545L308.284 35.6791L308.566 34.7202L308.849 33.7613L308.414 33.6272L308.131 34.5861ZM308.566 34.7202L308.284 35.6791L308.719 35.8132L309.002 34.8543L309.284 33.8954L308.849 33.7613L308.566 34.7202ZM309.002 34.8543L308.719 35.8132C309.27 35.983 309.862 35.929 310.363 35.5488L309.757 34.7456L309.151 33.9425C309.158 33.937 309.172 33.9278 309.193 33.9191C309.213 33.9103 309.235 33.9042 309.257 33.9012C309.301 33.8948 309.315 33.9048 309.284 33.8954L309.002 34.8543ZM309.757 34.7456L310.363 35.5488L310.683 35.3059L310.077 34.5028L309.471 33.6996L309.151 33.9425L309.757 34.7456ZM310.077 34.5028L310.683 35.3059L311.002 35.0631L310.397 34.2599L309.791 33.4568L309.471 33.6996L310.077 34.5028ZM310.397 34.2599L311.002 35.0631C311.013 35.0549 311.02 35.0512 311.022 35.0499C311.025 35.0487 311.024 35.0491 311.022 35.0499C311.019 35.0507 311.016 35.0512 311.015 35.0513C311.013 35.0514 311.015 35.0511 311.021 35.0517L311.102 34.0528L311.183 33.0539C310.669 33.0063 310.191 33.1529 309.791 33.4568L310.397 34.2599ZM311.102 34.0528L311.021 35.0517L311.407 35.0874L311.487 34.0885L311.568 33.0896L311.183 33.0539L311.102 34.0528ZM311.487 34.0885L311.407 35.0874L311.792 35.123L311.873 34.1241L311.953 33.1252L311.568 33.0896L311.487 34.0885ZM311.873 34.1241L311.792 35.123C312.169 35.1579 312.542 35.1244 312.904 35.0191L312.618 34.0551L312.332 33.0912C312.214 33.1254 312.09 33.1379 311.953 33.1252L311.873 34.1241ZM312.618 34.0551L312.904 35.0191L313.264 34.9144L312.978 33.9505L312.692 32.9865L312.332 33.0912L312.618 34.0551ZM312.978 33.9505L313.264 34.9144L313.624 34.8098L313.338 33.8458L313.052 32.8819L312.692 32.9865L312.978 33.9505ZM313.338 33.8458L313.624 34.8098C313.689 34.7909 313.752 34.7885 313.832 34.8092L314.071 33.8381L314.311 32.867C313.893 32.7585 313.467 32.7613 313.052 32.8819L313.338 33.8458ZM314.071 33.8381L313.832 34.8092L314.205 34.9061L314.445 33.935L314.684 32.9639L314.311 32.867L314.071 33.8381ZM314.445 33.935L314.205 34.9061L314.578 35.0031L314.818 34.0319L315.057 33.0608L314.684 32.9639L314.445 33.935ZM314.818 34.0319L314.578 35.0031C315.11 35.1411 315.622 35.0409 316.064 34.7934L315.573 33.9154L315.081 33.0373C315.041 33.0596 315.026 33.0606 315.032 33.0597C315.034 33.0593 315.039 33.0589 315.045 33.0592C315.051 33.0595 315.056 33.0604 315.057 33.0608L314.818 34.0319ZM315.573 33.9154L316.064 34.7934L316.446 34.5799L315.954 33.7019L315.463 32.8238L315.081 33.0373L315.573 33.9154ZM315.954 33.7019L316.446 34.5799L316.828 34.3664L316.336 33.4884L315.845 32.6103L315.463 32.8238L315.954 33.7019ZM316.336 33.4884L316.828 34.3664C316.837 34.3609 316.8 34.3837 316.726 34.384C316.647 34.3843 316.591 34.3595 316.57 34.3471L317.071 33.4854L317.572 32.6238C317.004 32.285 316.38 32.3111 315.845 32.6103L316.336 33.4884ZM317.071 33.4854L316.57 34.3471L316.923 34.5576L317.424 33.696L317.926 32.8343L317.572 32.6238L317.071 33.4854ZM317.424 33.696L316.923 34.5576L317.277 34.7682L317.778 33.9065L318.279 33.0448L317.926 32.8343L317.424 33.696ZM317.778 33.9065L317.277 34.7682C317.731 35.0389 318.237 35.1206 318.745 35.0191L318.541 34.0351L318.336 33.0511C318.321 33.0541 318.312 33.0548 318.307 33.0549C318.302 33.055 318.3 33.0547 318.299 33.0546C318.299 33.0546 318.298 33.0545 318.296 33.0537C318.294 33.0528 318.288 33.0504 318.279 33.0448L317.778 33.9065ZM318.541 34.0351L318.745 35.0191L319.155 34.9371L318.951 33.9531L318.746 32.9692L318.336 33.0511L318.541 34.0351ZM318.951 33.9531L319.155 34.9371L319.565 34.8552L319.361 33.8712L319.156 32.8872L318.746 32.9692L318.951 33.9531ZM319.361 33.8712L319.565 34.8552C319.572 34.8538 319.544 34.86 319.497 34.8473C319.475 34.8414 319.456 34.8333 319.441 34.8249C319.434 34.8208 319.428 34.8172 319.424 34.8145C319.422 34.8131 319.421 34.8121 319.42 34.8113C319.419 34.8105 319.419 34.8101 319.419 34.8101L320.077 34.0644L320.736 33.3187C320.289 32.9178 319.728 32.7729 319.156 32.8872L319.361 33.8712ZM320.077 34.0644L319.419 34.8101L319.726 35.0853L320.384 34.3396L321.043 33.5938L320.736 33.3187L320.077 34.0644ZM320.384 34.3396L319.726 35.0853L320.032 35.3605L320.691 34.6147L321.35 33.869L321.043 33.5938L320.384 34.3396ZM320.691 34.6147L320.032 35.3605C320.363 35.6573 320.753 35.861 321.19 35.9526L321.383 34.9707L321.577 33.9888C321.5 33.9726 321.428 33.939 321.35 33.869L320.691 34.6147ZM321.383 34.9707L321.19 35.9526L321.575 36.0335L321.769 35.0516L321.962 34.0696L321.577 33.9888L321.383 34.9707ZM321.769 35.0516L321.575 36.0335L321.961 36.1143L322.154 35.1324L322.347 34.1505L321.962 34.0696L321.769 35.0516ZM322.154 35.1324L321.961 36.1143C322.117 36.147 322.26 36.2015 322.394 36.2782L322.879 35.4073L323.364 34.5363C323.046 34.3543 322.706 34.2256 322.347 34.1505L322.154 35.1324ZM322.879 35.4073L322.394 36.2782L322.733 36.4723L323.219 35.6013L323.704 34.7303L323.364 34.5363L322.879 35.4073ZM323.219 35.6013L322.733 36.4723L323.073 36.6663L323.558 35.7953L324.043 34.9243L323.704 34.7303L323.219 35.6013ZM323.558 35.7953L323.073 36.6663C323.18 36.7277 323.27 36.8063 323.348 36.9083L324.137 36.3037L324.926 35.6991C324.684 35.382 324.388 35.1215 324.043 34.9243L323.558 35.7953ZM324.137 36.3037L323.348 36.9083L323.587 37.2227L324.376 36.6181L325.165 36.0135L324.926 35.6991L324.137 36.3037ZM324.376 36.6181L323.587 37.2227L323.827 37.5371L324.616 36.9325L325.405 36.3279L325.165 36.0135L324.376 36.6181ZM324.616 36.9325L323.827 37.5371C323.995 37.7575 324.164 37.9715 324.336 38.1791L325.099 37.5416L325.862 36.9041C325.708 36.7187 325.556 36.5267 325.405 36.3279L324.616 36.9325ZM325.099 37.5416L324.336 38.1791L324.581 38.4738L325.343 37.8363L326.106 37.1988L325.862 36.9041L325.099 37.5416ZM325.343 37.8363L324.581 38.4738L324.825 38.7685L325.588 38.131L326.351 37.4935L326.106 37.1988L325.343 37.8363ZM325.588 38.131L324.825 38.7685C324.879 38.8336 324.92 38.9128 324.945 39.0244L325.918 38.8183L326.891 38.6122C326.801 38.2004 326.622 37.8214 326.351 37.4935L325.588 38.131ZM325.918 38.8183L324.945 39.0244L325.031 39.4169L326.004 39.2109L326.977 39.0048L326.891 38.6122L325.918 38.8183ZM326.004 39.2109L325.031 39.4169L325.117 39.8095L326.09 39.6034L327.064 39.3973L326.977 39.0048L326.004 39.2109ZM326.09 39.6034L325.117 39.8095C325.186 40.1228 325.277 40.423 325.394 40.7078L326.315 40.334L327.236 39.9602C327.168 39.7943 327.11 39.6074 327.064 39.3973L326.09 39.6034ZM326.315 40.334L325.394 40.7078L325.532 41.0458L326.453 40.6721L327.374 40.2983L327.236 39.9602L326.315 40.334ZM326.453 40.6721L325.532 41.0458L325.671 41.3839L326.592 41.0101L327.513 40.6363L327.374 40.2983L326.453 40.6721ZM326.592 41.0101L325.671 41.3839C325.815 41.7364 326.026 42.0505 326.288 42.3263L327.005 41.6375L327.722 40.9486C327.618 40.8387 327.553 40.7346 327.513 40.6363L326.592 41.0101ZM327.005 41.6375L326.288 42.3263L326.563 42.6156L327.28 41.9267L327.997 41.2379L327.722 40.9486L327.005 41.6375ZM327.28 41.9267L326.563 42.6156L326.837 42.9049L327.554 42.216L328.272 41.5271L327.997 41.2379L327.28 41.9267ZM327.554 42.216L326.837 42.9049C326.906 42.9777 326.937 43.0412 326.953 43.104L327.92 42.8711L328.887 42.6382C328.781 42.2133 328.569 41.8401 328.272 41.5271L327.554 42.216ZM327.92 42.8711L326.953 43.104L327.043 43.4698L328.01 43.2369L328.978 43.004L328.887 42.6382L327.92 42.8711ZM328.01 43.2369L327.043 43.4698L327.134 43.8356L328.101 43.6027L329.068 43.3698L328.978 43.004L328.01 43.2369ZM328.101 43.6027L327.134 43.8356C327.213 44.1533 327.327 44.4612 327.474 44.7587L328.365 44.3203L329.257 43.8818C329.173 43.7103 329.11 43.5399 329.068 43.3698L328.101 43.6027ZM328.365 44.3203L327.474 44.7587L327.647 45.1104L328.539 44.672L329.431 44.2335L329.257 43.8818L328.365 44.3203ZM328.539 44.672L327.647 45.1104L327.821 45.4622L328.713 45.0237L329.605 44.5852L329.431 44.2335L328.539 44.672ZM328.713 45.0237L327.821 45.4622C327.906 45.6355 327.973 45.8131 328.02 45.9958L328.984 45.7505L329.948 45.5053C329.865 45.1879 329.751 44.8809 329.605 44.5852L328.713 45.0237ZM328.984 45.7505L328.02 45.9958L328.118 46.3709L329.082 46.1256L330.046 45.8804L329.948 45.5053L328.984 45.7505ZM329.082 46.1256L328.118 46.3709L328.216 46.746L329.18 46.5007L330.144 46.2555L330.046 45.8804L329.082 46.1256ZM329.18 46.5007L328.216 46.746C328.246 46.8586 328.252 46.9725 328.233 47.0968L329.217 47.2642L330.202 47.4317C330.264 47.0381 330.246 46.643 330.144 46.2555L329.18 46.5007ZM329.217 47.2642L328.233 47.0968L328.171 47.4852L329.156 47.6527L330.141 47.8201L330.202 47.4317L329.217 47.2642ZM329.156 47.6527L328.171 47.4852L328.11 47.8736L329.095 48.0411L330.079 48.2085L330.141 47.8201L329.156 47.6527ZM329.095 48.0411L328.11 47.8736C328.079 48.0688 328.03 48.2613 327.961 48.4519L328.898 48.8036L329.836 49.1554C329.947 48.8471 330.029 48.5312 330.079 48.2085L329.095 48.0411ZM328.898 48.8036L327.961 48.4519L327.826 48.826L328.763 49.1778L329.7 49.5295L329.836 49.1554L328.898 48.8036ZM328.763 49.1778L327.826 48.826L327.691 49.2001L328.628 49.5519L329.565 49.9037L329.7 49.5295L328.763 49.1778ZM328.628 49.5519L327.691 49.2001C327.523 49.6629 327.519 50.1486 327.677 50.6183L328.621 50.3051L329.564 49.9919C329.552 49.9562 329.552 49.9397 329.565 49.9037L328.628 49.5519ZM328.621 50.3051L327.677 50.6183L327.805 50.9974L328.748 50.6841L329.692 50.3709L329.564 49.9919L328.621 50.3051ZM328.748 50.6841L327.805 50.9974L327.933 51.3764L328.876 51.0632L329.82 50.7499L329.692 50.3709L328.748 50.6841ZM328.876 51.0632L327.933 51.3764C327.988 51.5399 328.016 51.6967 328.021 51.8494L329.018 51.8246L330.014 51.7999C330.001 51.4427 329.935 51.0918 329.82 50.7499L328.876 51.0632ZM329.018 51.8246L328.021 51.8494L328.035 52.2318L329.031 52.2071L330.027 52.1823L330.014 51.7999L329.018 51.8246ZM329.031 52.2071L328.035 52.2318L328.048 52.6142L329.045 52.5895L330.041 52.5648L330.027 52.1823L329.031 52.2071ZM329.045 52.5895L328.048 52.6142C328.057 52.8479 328.057 53.082 328.051 53.3166L329.047 53.3554L330.044 53.3943C330.052 53.1175 330.051 52.841 330.041 52.5648L329.045 52.5895ZM329.047 53.3554L328.051 53.3166L328.04 53.7001L329.037 53.739L330.033 53.7778L330.044 53.3943L329.047 53.3554ZM329.037 53.739L328.04 53.7001L328.03 54.0837L329.026 54.1225L330.023 54.1614L330.033 53.7778L329.037 53.739ZM329.026 54.1225L328.03 54.0837C328.026 54.2055 328 54.3214 327.948 54.4385L328.857 54.8591L329.767 55.2798C329.925 54.926 330.012 54.5509 330.023 54.1614L329.026 54.1225ZM328.857 54.8591L327.948 54.4385L327.789 54.7915L328.699 55.2122L329.608 55.6328L329.767 55.2798L328.857 54.8591ZM328.699 55.2122L327.789 54.7915L327.631 55.1446L328.541 55.5652L329.45 55.9859L329.608 55.6328L328.699 55.2122ZM328.541 55.5652L327.631 55.1446C327.469 55.5055 327.386 55.8891 327.383 56.2868L328.379 56.3052L329.376 56.3235C329.377 56.2054 329.401 56.0957 329.45 55.9859L328.541 55.5652ZM328.379 56.3052L327.383 56.2868L327.38 56.6736L328.377 56.692L329.373 56.7104L329.376 56.3235L328.379 56.3052ZM328.377 56.692L327.38 56.6736L327.377 57.0605L328.374 57.0789L329.37 57.0973L329.373 56.7104L328.377 56.692ZM328.374 57.0789L327.377 57.0605C327.375 57.2559 327.356 57.4447 327.319 57.6278L328.297 57.8361L329.274 58.0445C329.336 57.7337 329.368 57.4176 329.37 57.0973L328.374 57.0789ZM328.297 57.8361L327.319 57.6278L327.245 57.9981L328.222 58.2065L329.2 58.4149L329.274 58.0445L328.297 57.8361ZM328.222 58.2065L327.245 57.9981L327.171 58.3685L328.148 58.5769L329.125 58.7853L329.2 58.4149L328.222 58.2065ZM328.148 58.5769L327.171 58.3685C327.155 58.4484 327.118 58.5357 327.039 58.6359L327.821 59.2663L328.603 59.8966C328.861 59.5715 329.043 59.1993 329.125 58.7853L328.148 58.5769ZM327.821 59.2663L327.039 58.6359L326.787 58.9549L327.569 59.5853L328.351 60.2156L328.603 59.8966L327.821 59.2663ZM327.569 59.5853L326.787 58.9549L326.534 59.2739L327.316 59.9042L328.098 60.5346L328.351 60.2156L327.569 59.5853ZM327.316 59.9042L326.534 59.2739C326.334 59.5261 326.158 59.7887 326.006 60.0621L326.877 60.5583L327.749 61.0544C327.845 60.8811 327.961 60.7077 328.098 60.5346L327.316 59.9042ZM326.877 60.5583L326.006 60.0621L325.82 60.3972L326.692 60.8933L327.563 61.3895L327.749 61.0544L326.877 60.5583ZM326.692 60.8933L325.82 60.3972L325.634 60.7322L326.506 61.2284L327.377 61.7245L327.563 61.3895L326.692 60.8933ZM326.506 61.2284L325.634 60.7322C325.476 61.0166 325.351 61.3135 325.26 61.6221L326.216 61.9169L327.172 62.2117C327.22 62.0491 327.287 61.8869 327.377 61.7245L326.506 61.2284ZM326.216 61.9169L325.26 61.6221L325.155 61.9756L326.111 62.2704L327.067 62.5652L327.172 62.2117L326.216 61.9169ZM326.111 62.2704L325.155 61.9756L325.051 62.3291L326.007 62.6239L326.963 62.9186L327.067 62.5652L326.111 62.2704ZM326.007 62.6239L325.051 62.3291C324.919 62.7769 324.942 63.234 325.054 63.6655L326.018 63.4215L326.983 63.1775C326.941 63.0168 326.956 62.9421 326.963 62.9186L326.007 62.6239ZM326.018 63.4215L325.054 63.6655L325.17 64.1097L326.134 63.8657L327.098 63.6217L326.983 63.1775L326.018 63.4215ZM326.134 63.8657L325.17 64.1097L325.285 64.5539L326.249 64.3099L327.214 64.0659L327.098 63.6217L326.134 63.8657ZM326.249 64.3099L325.285 64.5539C325.299 64.6067 325.295 64.6232 325.296 64.6127C325.296 64.6074 325.298 64.5982 325.302 64.5867C325.305 64.5751 325.31 64.5649 325.315 64.5571L326.172 65.0785L327.029 65.5998C327.321 65.1081 327.343 64.5649 327.214 64.0659L326.249 64.3099ZM326.172 65.0785L325.315 64.5571L325.122 64.8815L325.98 65.4028L326.837 65.9242L327.029 65.5998L326.172 65.0785ZM325.98 65.4028L325.122 64.8815L324.93 65.2059L325.787 65.7272L326.644 66.2485L326.837 65.9242L325.98 65.4028ZM325.787 65.7272L324.93 65.2059C324.756 65.4993 324.623 65.8127 324.532 66.1436L325.493 66.421L326.454 66.6984C326.498 66.5367 326.562 66.3876 326.644 66.2485L325.787 65.7272ZM325.493 66.421L324.532 66.1436L324.43 66.513L325.391 66.7904L326.352 67.0679L326.454 66.6984L325.493 66.421ZM325.391 66.7904L324.43 66.513L324.328 66.8825L325.289 67.1599L326.25 67.4373L326.352 67.0679L325.391 66.7904ZM325.289 67.1599L324.328 66.8825C324.275 67.0766 324.208 67.2595 324.127 67.4321L325.031 67.8661L325.934 68.3C326.063 68.0236 326.168 67.7358 326.25 67.4373L325.289 67.1599ZM325.031 67.8661L324.127 67.4321L323.97 67.7689L324.874 68.2029L325.777 68.6368L325.934 68.3L325.031 67.8661ZM324.874 68.2029L323.97 67.7689L323.813 68.1057L324.717 68.5397L325.62 68.9736L325.777 68.6368L324.874 68.2029ZM324.717 68.5397L323.813 68.1057C323.746 68.2496 323.657 68.3917 323.541 68.532L324.31 69.1785L325.079 69.825C325.296 69.5626 325.478 69.2788 325.62 68.9736L324.717 68.5397ZM324.31 69.1785L323.541 68.532L323.291 68.8341L324.06 69.4806L324.829 70.1271L325.079 69.825L324.31 69.1785ZM324.06 69.4806L323.291 68.8341L323.041 69.1362L323.81 69.7827L324.58 70.4292L324.829 70.1271L324.06 69.4806ZM323.81 69.7827L323.041 69.1362C322.816 69.409 322.632 69.7084 322.498 70.0338L323.419 70.4276L324.34 70.8214C324.394 70.6896 324.472 70.559 324.58 70.4292L323.81 69.7827ZM323.419 70.4276L322.498 70.0338L322.356 70.3767L323.277 70.7705L324.198 71.1643L324.34 70.8214L323.419 70.4276ZM323.277 70.7705L322.356 70.3767L322.214 70.7195L323.135 71.1133L324.056 71.5071L324.198 71.1643L323.277 70.7705ZM323.135 71.1133L322.214 70.7195C322.128 70.9291 322.034 71.1374 321.933 71.3444L322.829 71.7939L323.725 72.2433C323.844 72.0002 323.954 71.7548 324.056 71.5071L323.135 71.1133ZM322.829 71.7939L321.933 71.3444L321.769 71.6821L322.665 72.1315L323.56 72.581L323.725 72.2433L322.829 71.7939ZM322.665 72.1315L321.769 71.6821L321.604 72.0197L322.5 72.4692L323.396 72.9186L323.56 72.581L322.665 72.1315ZM322.5 72.4692L321.604 72.0197C321.454 72.3281 321.348 72.6544 321.284 72.9953L322.264 73.1905L323.244 73.3858C323.276 73.2151 323.327 73.0604 323.396 72.9186L322.5 72.4692ZM322.264 73.1905L321.284 72.9953L321.213 73.379L322.192 73.5742L323.172 73.7695L323.244 73.3858L322.264 73.1905ZM322.192 73.5742L321.213 73.379L321.141 73.7627L322.121 73.9579L323.101 74.1531L323.172 73.7695L322.192 73.5742ZM322.121 73.9579L321.141 73.7627C321.141 73.7604 321.143 73.7534 321.147 73.7437C321.151 73.7339 321.156 73.7247 321.162 73.7171C321.167 73.7096 321.17 73.7064 321.17 73.7071C321.169 73.7079 321.163 73.7136 321.148 73.7226L321.688 74.5717L322.228 75.4208C322.672 75.1376 322.997 74.7093 323.101 74.1531L322.121 73.9579ZM321.688 74.5717L321.148 73.7226L320.787 73.9528L321.327 74.8018L321.867 75.6509L322.228 75.4208L321.688 74.5717ZM321.327 74.8018L320.787 73.9528L320.426 74.1829L320.966 75.032L321.506 75.881L321.867 75.6509L321.327 74.8018ZM320.966 75.032L320.426 74.1829C319.995 74.4576 319.673 74.8646 319.545 75.3937L320.513 75.6411L321.482 75.8885C321.482 75.8874 321.482 75.8898 321.48 75.8944C321.478 75.899 321.475 75.903 321.473 75.9057C321.471 75.9083 321.471 75.9074 321.476 75.9035C321.48 75.8995 321.489 75.8916 321.506 75.881L320.966 75.032ZM320.513 75.6411L319.545 75.3937L319.453 75.7728L320.422 76.0202L321.39 76.2675L321.482 75.8885L320.513 75.6411ZM320.422 76.0202L319.453 75.7728L319.361 76.1518L320.33 76.3992L321.298 76.6466L321.39 76.2675L320.422 76.0202ZM320.33 76.3992L319.361 76.1518C319.33 76.2795 319.281 76.3813 319.216 76.468L320.015 77.0763L320.815 77.6846C321.047 77.3739 321.207 77.0243 321.298 76.6466L320.33 76.3992ZM320.015 77.0763L319.216 76.468L318.993 76.7661L319.793 77.3744L320.592 77.9826L320.815 77.6846L320.015 77.0763ZM319.793 77.3744L318.993 76.7661L318.771 77.0642L319.57 77.6724L320.369 78.2807L320.592 77.9826L319.793 77.3744ZM319.57 77.6724L318.771 77.0642C318.514 77.4075 318.363 77.8011 318.303 78.2202L319.289 78.374L320.276 78.5279C320.293 78.409 320.329 78.3348 320.369 78.2807L319.57 77.6724ZM319.289 78.374L318.303 78.2202L318.245 78.6237L319.231 78.7776L320.218 78.9314L320.276 78.5279L319.289 78.374ZM319.231 78.7776L318.245 78.6237L318.187 79.0273L319.174 79.1811L320.16 79.335L320.218 78.9314L319.231 78.7776ZM319.174 79.1811L318.187 79.0273C318.172 79.1291 318.161 79.1478 318.172 79.1201C318.178 79.1048 318.202 79.0474 318.255 78.9759C318.309 78.9042 318.42 78.7839 318.608 78.706L318.996 79.6341L319.385 80.5621C319.815 80.3837 319.978 80.001 320.028 79.8721C320.098 79.6935 320.136 79.5021 320.16 79.335L319.174 79.1811ZM318.996 79.6341L318.608 78.706L318.489 78.7555L318.877 79.6835L319.265 80.6116L319.385 80.5621L318.996 79.6341ZM318.877 79.6835L318.809 78.6821L318.618 78.6931L318.686 79.6946L318.754 80.6961L318.945 80.685L318.877 79.6835ZM318.686 79.6946L317.808 79.2099L317.761 79.2977L318.639 79.7824L319.517 80.2671L319.564 80.1793L318.686 79.6946Z" fill="#22D3EE"/>
<path d="M57.1792 52.5L48.4392 21.9545H55.4939L60.55 43.1783H60.8035L66.3816 21.9545H72.4221L77.9853 43.223H78.2538L83.3099 21.9545H90.3646L81.6245 52.5H75.3305L69.5137 32.5291H69.2751L63.4733 52.5H57.1792ZM102.521 52.9474C100.165 52.9474 98.1362 52.4702 96.4359 51.5156C94.7456 50.5511 93.443 49.1889 92.5283 47.429C91.6135 45.6591 91.1561 43.5661 91.1561 41.1499C91.1561 38.7933 91.6135 36.7251 92.5283 34.9453C93.443 33.1655 94.7307 31.7784 96.3912 30.7841C98.0617 29.7898 100.02 29.2926 102.268 29.2926C103.779 29.2926 105.186 29.5362 106.489 30.0234C107.801 30.5007 108.944 31.2216 109.919 32.1861C110.903 33.1506 111.669 34.3636 112.216 35.8253C112.763 37.277 113.036 38.9773 113.036 40.9261V42.6712H93.6916V38.7337H107.055C107.055 37.8189 106.856 37.0085 106.459 36.3026C106.061 35.5966 105.509 35.0447 104.803 34.647C104.107 34.2393 103.297 34.0355 102.372 34.0355C101.408 34.0355 100.552 34.2592 99.8067 34.7067C99.0709 35.1442 98.4942 35.7358 98.0766 36.4815C97.659 37.2173 97.4452 38.0376 97.4352 38.9425V42.6861C97.4352 43.8196 97.644 44.799 98.0617 45.6243C98.4892 46.4496 99.0908 47.0859 99.8663 47.5334C100.642 47.9808 101.562 48.2045 102.626 48.2045C103.332 48.2045 103.978 48.1051 104.564 47.9062C105.151 47.7074 105.653 47.4091 106.071 47.0114C106.489 46.6136 106.807 46.1264 107.025 45.5497L112.902 45.9375C112.604 47.3494 111.992 48.5824 111.067 49.6364C110.153 50.6804 108.969 51.4957 107.518 52.0824C106.076 52.6591 104.41 52.9474 102.521 52.9474ZM128.702 21.9545H136.667L145.079 42.4773H145.437L153.849 21.9545H161.813V52.5H155.549V32.6186H155.295L147.391 52.3509H143.125L135.22 32.544H134.967V52.5H128.702V21.9545ZM174.387 52.9325C172.926 52.9325 171.623 52.679 170.48 52.1719C169.336 51.6548 168.431 50.8942 167.765 49.8899C167.109 48.8757 166.781 47.6129 166.781 46.1016C166.781 44.8288 167.015 43.7599 167.482 42.8949C167.949 42.0298 168.586 41.3338 169.391 40.8068C170.196 40.2798 171.111 39.8821 172.135 39.6136C173.169 39.3452 174.253 39.1562 175.387 39.0469C176.719 38.9077 177.793 38.7784 178.608 38.6591C179.424 38.5298 180.015 38.3409 180.383 38.0923C180.751 37.8437 180.935 37.4759 180.935 36.9886V36.8991C180.935 35.9545 180.637 35.2237 180.04 34.7067C179.453 34.1896 178.618 33.9311 177.534 33.9311C176.391 33.9311 175.481 34.1847 174.805 34.6918C174.129 35.1889 173.681 35.8153 173.463 36.571L167.586 36.0938C167.885 34.7017 168.471 33.4986 169.346 32.4844C170.221 31.4602 171.35 30.6747 172.732 30.1278C174.124 29.571 175.735 29.2926 177.564 29.2926C178.837 29.2926 180.055 29.4418 181.218 29.7401C182.392 30.0384 183.431 30.5007 184.336 31.1271C185.25 31.7536 185.971 32.5589 186.498 33.5433C187.025 34.5178 187.289 35.6861 187.289 37.0483V52.5H181.263V49.3232H181.084C180.716 50.0391 180.224 50.6705 179.608 51.2173C178.991 51.7543 178.25 52.1768 177.385 52.4851C176.52 52.7834 175.521 52.9325 174.387 52.9325ZM176.207 48.5476C177.142 48.5476 177.967 48.3636 178.683 47.9957C179.399 47.6179 179.961 47.1108 180.368 46.4744C180.776 45.8381 180.98 45.1172 180.98 44.3118V41.8807C180.781 42.0099 180.507 42.1293 180.159 42.2386C179.821 42.3381 179.439 42.4325 179.011 42.522C178.583 42.6016 178.156 42.6761 177.728 42.7457C177.301 42.8054 176.913 42.8601 176.565 42.9098C175.819 43.0192 175.168 43.1932 174.611 43.4318C174.054 43.6705 173.622 43.9936 173.314 44.4013C173.005 44.799 172.851 45.2962 172.851 45.8928C172.851 46.7578 173.164 47.419 173.791 47.8764C174.427 48.3239 175.233 48.5476 176.207 48.5476ZM198.815 45.9077L198.83 38.2862H199.755L207.093 29.5909H214.386L204.527 41.1051H203.021L198.815 45.9077ZM193.058 52.5V21.9545H199.412V52.5H193.058ZM207.376 52.5L200.635 42.522L204.871 38.0327L214.819 52.5H207.376ZM227.84 52.9474C225.484 52.9474 223.455 52.4702 221.755 51.5156C220.065 50.5511 218.762 49.1889 217.847 47.429C216.933 45.6591 216.475 43.5661 216.475 41.1499C216.475 38.7933 216.933 36.7251 217.847 34.9453C218.762 33.1655 220.05 31.7784 221.71 30.7841C223.381 29.7898 225.34 29.2926 227.587 29.2926C229.098 29.2926 230.505 29.5362 231.808 30.0234C233.12 30.5007 234.264 31.2216 235.238 32.1861C236.222 33.1506 236.988 34.3636 237.535 35.8253C238.082 37.277 238.355 38.9773 238.355 40.9261V42.6712H219.011V38.7337H232.374C232.374 37.8189 232.176 37.0085 231.778 36.3026C231.38 35.5966 230.828 35.0447 230.122 34.647C229.426 34.2393 228.616 34.0355 227.691 34.0355C226.727 34.0355 225.872 34.2592 225.126 34.7067C224.39 35.1442 223.813 35.7358 223.396 36.4815C222.978 37.2173 222.764 38.0376 222.754 38.9425V42.6861C222.754 43.8196 222.963 44.799 223.381 45.6243C223.808 46.4496 224.41 47.0859 225.185 47.5334C225.961 47.9808 226.881 48.2045 227.945 48.2045C228.651 48.2045 229.297 48.1051 229.884 47.9062C230.47 47.7074 230.972 47.4091 231.39 47.0114C231.808 46.6136 232.126 46.1264 232.345 45.5497L238.221 45.9375C237.923 47.3494 237.311 48.5824 236.386 49.6364C235.472 50.6804 234.288 51.4957 232.837 52.0824C231.395 52.6591 229.73 52.9474 227.84 52.9474Z" fill="#F8FAFC"/>
<path d="M260.48 21.9545V52.5H254.022V21.9545H260.48ZM265.47 27.2791V21.9545H290.556V27.2791H281.205V52.5H274.821V27.2791H265.47Z" fill="#22D3EE"/>
</svg>
