<svg width="124" height="26" viewBox="0 0 124 26" fill="none" xmlns="http://www.w3.org/2000/svg">
<path d="M12.072 21.554C11.864 21.57 11.672 21.522 11.496 21.41C11.336 21.314 11.224 21.186 11.16 21.026C11.096 20.946 10.992 20.77 10.848 20.498C10.704 20.242 10.616 20.018 10.584 19.826C10.536 19.314 10.504 18.818 10.488 18.338C10.488 17.858 10.512 17.186 10.56 16.322C10.608 15.618 10.704 14.994 10.848 14.45C10.992 13.89 11.136 13.418 11.28 13.034C11.424 12.634 11.536 12.338 11.616 12.146C11.696 11.938 11.712 11.834 11.664 11.834C11.6 11.834 11.528 11.898 11.448 12.026C11.384 12.138 11.304 12.29 11.208 12.482C11.128 12.674 11.032 12.882 10.92 13.106C10.824 13.33 10.72 13.546 10.608 13.754C10.384 14.25 10.12 14.778 9.816 15.338C9.528 15.882 9.232 16.41 8.928 16.922C8.624 17.434 8.36 17.882 8.136 18.266C7.992 18.426 7.824 18.658 7.632 18.962C7.44 19.25 7.232 19.554 7.008 19.874C6.784 20.194 6.552 20.458 6.312 20.666C5.96 21.002 5.6 21.202 5.232 21.266C4.864 21.346 4.52 21.306 4.2 21.146C4.04 21.13 3.872 21.042 3.696 20.882C3.52 20.738 3.376 20.554 3.264 20.33C3.168 20.106 3.144 19.898 3.192 19.706C3.176 19.482 3.176 19.138 3.192 18.674C3.224 18.194 3.272 17.674 3.336 17.114C3.4 16.538 3.464 15.986 3.528 15.458C3.608 14.93 3.68 14.49 3.744 14.138C3.888 13.114 4.08 12.066 4.32 10.994C4.576 9.92198 4.808 8.84198 5.016 7.75398C5.144 7.43398 5.256 7.07398 5.352 6.67398C5.464 6.25798 5.576 5.87398 5.688 5.52198C5.704 5.16998 5.832 4.95398 6.072 4.87398C6.312 4.77798 6.568 4.76198 6.84 4.82598C7.128 4.88998 7.328 5.00198 7.44 5.16198C7.6 5.32198 7.752 5.56998 7.896 5.90598C8.04 6.24198 8 6.66598 7.776 7.17798C7.456 7.96198 7.144 8.92198 6.84 10.058C6.552 11.178 6.288 12.538 6.048 14.138C5.984 14.522 5.912 14.954 5.832 15.434C5.768 15.898 5.704 16.346 5.64 16.778C5.592 17.21 5.552 17.57 5.52 17.858C5.504 18.13 5.512 18.274 5.544 18.29C5.672 18.322 5.808 18.25 5.952 18.074C6.112 17.898 6.28 17.618 6.456 17.234C7.112 16.146 7.728 15.066 8.304 13.994C8.896 12.922 9.488 11.802 10.08 10.634C10.352 10.17 10.624 9.66598 10.896 9.12198C11.184 8.56198 11.456 8.04998 11.712 7.58598C11.984 7.10598 12.248 6.64198 12.504 6.19398C12.76 5.74598 12.984 5.36998 13.176 5.06598C13.368 4.74598 13.512 4.56998 13.608 4.53798C14.04 4.53798 14.36 4.64998 14.568 4.87398C14.792 5.09798 14.968 5.36998 15.096 5.68998C15.128 5.76998 15.144 5.90598 15.144 6.09798C15.16 6.28998 15.136 6.45798 15.072 6.60198C15.056 6.71398 14.984 6.94598 14.856 7.29798C14.744 7.64998 14.64 8.04198 14.544 8.47398C14.384 8.90598 14.24 9.33798 14.112 9.76998C14 10.186 13.92 10.53 13.872 10.802C13.744 11.49 13.584 12.242 13.392 13.058C13.2 13.874 13.032 14.69 12.888 15.506C12.76 16.306 12.688 17.018 12.672 17.642C12.656 18.09 12.656 18.386 12.672 18.53C12.704 18.658 12.752 18.794 12.816 18.938C12.848 19.066 12.92 19.098 13.032 19.034C13.144 18.97 13.256 18.858 13.368 18.698C13.592 18.362 13.76 18.074 13.872 17.834C14 17.594 14.128 17.338 14.256 17.066C14.384 16.778 14.56 16.418 14.784 15.986C15.184 15.25 15.592 14.442 16.008 13.562C16.44 12.682 16.848 11.81 17.232 10.946C17.632 10.082 17.976 9.31398 18.264 8.64198C18.568 7.77798 18.824 7.08198 19.032 6.55398C19.24 6.00998 19.432 5.59398 19.608 5.30598C19.784 5.01798 19.952 4.82598 20.112 4.72998C20.192 4.66598 20.36 4.63398 20.616 4.63398C20.888 4.63398 21.096 4.69798 21.24 4.82598C21.304 4.88998 21.416 4.99398 21.576 5.13798C21.736 5.28198 21.808 5.44998 21.792 5.64198C21.712 5.89798 21.56 6.31398 21.336 6.88998C21.128 7.46598 20.88 8.10598 20.592 8.80998C20.32 9.49798 20.048 10.162 19.776 10.802C19.52 11.426 19.304 11.922 19.128 12.29C18.952 12.626 18.784 12.914 18.624 13.154C18.464 13.394 18.384 13.578 18.384 13.706C18.384 13.77 18.304 13.97 18.144 14.306C17.984 14.626 17.776 15.018 17.52 15.482C17.28 15.946 17.016 16.426 16.728 16.922C16.44 17.418 16.168 17.874 15.912 18.29C15.656 18.706 15.44 19.026 15.264 19.25C14.864 19.746 14.432 20.162 13.968 20.498C13.52 20.85 13.12 21.114 12.768 21.29C12.416 21.466 12.184 21.554 12.072 21.554ZM24.8998 19.586C24.4198 19.858 23.9078 20.018 23.3638 20.066C22.8358 20.098 22.3398 20.026 21.8758 19.85C21.4118 19.658 21.0358 19.378 20.7478 19.01C20.5878 18.802 20.4358 18.474 20.2918 18.026C20.1478 17.562 20.1238 16.938 20.2198 16.154C20.3158 15.418 20.5398 14.674 20.8918 13.922C21.2598 13.17 21.7078 12.506 22.2358 11.93C22.7638 11.354 23.3398 10.962 23.9638 10.754C24.1878 10.674 24.4118 10.618 24.6358 10.586C24.8758 10.538 25.1878 10.53 25.5718 10.562C25.9398 10.61 26.2678 10.706 26.5558 10.85C26.8438 10.978 27.0518 11.122 27.1798 11.282C27.4358 11.538 27.6038 11.786 27.6838 12.026C27.7638 12.266 27.7958 12.498 27.7798 12.722C27.6998 13.234 27.4678 13.786 27.0838 14.378C26.7158 14.97 26.1958 15.41 25.5238 15.698C25.2518 15.81 24.9318 15.882 24.5638 15.914C24.1958 15.946 23.6918 15.898 23.0518 15.77C22.6678 15.69 22.4118 15.73 22.2838 15.89C22.1718 16.05 22.1238 16.362 22.1398 16.826C22.1718 17.114 22.2358 17.37 22.3318 17.594C22.4438 17.802 22.6438 17.946 22.9318 18.026C23.2998 18.09 23.5638 18.098 23.7238 18.05C23.8838 17.986 24.0838 17.898 24.3238 17.786C24.4518 17.706 24.5718 17.618 24.6838 17.522C24.8118 17.426 24.9318 17.33 25.0438 17.234C25.1718 17.138 25.2758 17.066 25.3558 17.018C25.4358 16.954 25.5158 16.914 25.5958 16.898C25.6758 16.882 25.7558 16.874 25.8358 16.874C26.0118 16.89 26.1798 16.986 26.3398 17.162C26.4998 17.338 26.6038 17.506 26.6518 17.666C26.6518 17.794 26.5718 17.978 26.4118 18.218C26.2518 18.442 26.0358 18.682 25.7638 18.938C25.5078 19.178 25.2198 19.394 24.8998 19.586ZM24.5878 14.234C24.6998 14.186 24.8598 14.074 25.0678 13.898C25.2918 13.722 25.4918 13.538 25.6678 13.346C25.8438 13.138 25.9318 12.978 25.9318 12.866C25.9318 12.69 25.8118 12.538 25.5718 12.41C25.3478 12.282 25.0518 12.258 24.6838 12.338C24.5558 12.37 24.4038 12.458 24.2278 12.602C24.0518 12.746 23.8758 12.914 23.6998 13.106C23.5238 13.282 23.3718 13.458 23.2438 13.634C23.1158 13.794 23.0278 13.922 22.9798 14.018C23.0438 14.098 23.1718 14.162 23.3638 14.21C23.5558 14.258 23.7638 14.282 23.9878 14.282C24.2278 14.282 24.4278 14.266 24.5878 14.234ZM48.9279 20.954C48.9279 20.954 48.8799 20.906 48.7839 20.81C48.7039 20.73 48.5279 20.626 48.2559 20.498C47.9679 20.194 47.7759 19.73 47.6799 19.106C47.5999 18.482 47.5839 17.786 47.6319 17.018C47.5999 16.634 47.5999 16.162 47.6319 15.602C47.6799 15.026 47.7439 14.434 47.8239 13.826C47.9199 13.218 48.0159 12.634 48.1119 12.074C48.2239 11.514 48.3199 11.05 48.3999 10.682C48.6079 9.83398 48.7919 9.08998 48.9519 8.44998C49.1279 7.80998 49.2159 7.43398 49.2159 7.32198C49.1199 7.49798 48.9759 7.74598 48.7839 8.06598C48.6079 8.38598 48.3519 8.84198 48.0159 9.43398C47.8079 9.76998 47.5839 10.138 47.3439 10.538C47.1199 10.938 46.9759 11.178 46.9119 11.258C46.7519 11.466 46.5919 11.754 46.4319 12.122C46.2719 12.474 46.0079 13.002 45.6399 13.706C45.0799 14.538 44.5999 15.17 44.1999 15.602C43.8159 16.034 43.4719 16.322 43.1679 16.466C42.8799 16.594 42.5919 16.634 42.3039 16.586C41.8399 16.474 41.5279 16.258 41.3679 15.938C41.2079 15.602 41.0959 15.218 41.0319 14.786C40.9999 14.354 40.9919 14.002 41.0079 13.73C41.0399 13.442 41.0399 13.234 41.0079 13.106C41.0399 12.946 41.0719 12.778 41.1039 12.602C41.1359 12.41 41.1599 12.266 41.1759 12.17C41.1759 12.106 41.1919 11.962 41.2239 11.738C41.2719 11.514 41.3039 11.29 41.3199 11.066C41.3679 10.762 41.4319 10.41 41.5119 10.01C41.5919 9.59398 41.6639 9.21798 41.7279 8.88198C41.7919 8.54598 41.8079 8.33798 41.7759 8.25798C41.6959 8.41798 41.5999 8.58598 41.4879 8.76198C41.3759 8.93798 41.2959 9.06598 41.2479 9.14598C40.9759 9.51398 40.6559 10.082 40.2879 10.85C39.9199 11.602 39.4239 12.618 38.7999 13.898C38.7519 14.25 38.6079 14.698 38.3679 15.242C38.1439 15.77 37.9439 16.242 37.7679 16.658C37.6559 16.962 37.5039 17.346 37.3119 17.81C37.1359 18.258 36.9519 18.682 36.7599 19.082C36.5839 19.482 36.4399 19.762 36.3279 19.922C36.1359 20.29 35.9759 20.49 35.8479 20.522C35.7199 20.57 35.4559 20.442 35.0559 20.138C34.7999 19.898 34.5839 19.666 34.4079 19.442C34.2479 19.218 34.2479 18.954 34.4079 18.65C34.5199 18.474 34.6559 18.234 34.8159 17.93C34.9759 17.61 35.1199 17.29 35.2479 16.97C35.3919 16.65 35.4719 16.41 35.4879 16.25C35.5039 16.186 35.5519 16.074 35.6319 15.914C35.7279 15.754 35.8559 15.578 36.0159 15.386C35.9999 15.322 36.0719 15.082 36.2319 14.666C36.3919 14.234 36.6079 13.746 36.8799 13.202C36.9279 13.122 36.9599 13.042 36.9759 12.962C37.0079 12.882 37.0319 12.802 37.0479 12.722C37.1119 12.642 37.1759 12.546 37.2399 12.434C37.3039 12.322 37.3679 12.162 37.4319 11.954C37.4639 11.81 37.5279 11.626 37.6239 11.402C37.7199 11.178 37.8079 10.978 37.8879 10.802C37.9519 10.658 38.0239 10.538 38.1039 10.442C38.1999 10.33 38.2799 10.218 38.3439 10.106C38.4079 10.058 38.4639 9.97798 38.5119 9.86598C38.5599 9.75398 38.6159 9.66598 38.6799 9.60198C38.7439 9.40998 38.8639 9.16998 39.0399 8.88198C39.2319 8.57798 39.4319 8.24198 39.6399 7.87398C39.8639 7.50598 40.0559 7.13798 40.2159 6.76998C40.3439 6.68998 40.4559 6.57798 40.5519 6.43398C40.6479 6.28998 40.7279 6.13798 40.7919 5.97798C40.7919 5.97798 40.8319 5.88998 40.9119 5.71398C41.0079 5.53798 41.1039 5.38598 41.1999 5.25798C41.2799 5.14598 41.3999 4.98598 41.5599 4.77798C41.7199 4.56998 41.8719 4.37798 42.0159 4.20198C42.1759 4.00998 42.2799 3.90598 42.3279 3.88998C42.4239 3.87398 42.5919 3.92198 42.8319 4.03398C43.0879 4.14598 43.3199 4.28198 43.5279 4.44198C43.7359 4.60198 43.8399 4.76198 43.8399 4.92198C43.8719 5.09798 43.8799 5.35398 43.8639 5.68998C43.8639 6.02598 43.8559 6.36998 43.8399 6.72198C43.8239 7.05798 43.7919 7.34598 43.7439 7.58598C43.7119 7.93798 43.6639 8.34598 43.5999 8.80998C43.5359 9.27398 43.4719 9.72198 43.4079 10.154C43.3439 10.586 43.2879 10.938 43.2399 11.21C43.1599 11.802 43.0959 12.25 43.0479 12.554C42.9999 12.842 42.9759 12.986 42.9759 12.986C43.0079 13.05 43.0239 13.138 43.0239 13.25C43.0399 13.362 43.0559 13.466 43.0719 13.562L43.0959 13.754L43.3599 13.37C43.6479 13.002 43.8719 12.682 44.0319 12.41C44.1919 12.138 44.3519 11.874 44.5119 11.618C44.5119 11.538 44.5359 11.458 44.5839 11.378C44.6319 11.282 44.6879 11.186 44.7519 11.09C44.8479 11.01 44.9519 10.882 45.0639 10.706C45.1759 10.514 45.2239 10.346 45.2079 10.202C45.3679 9.96198 45.5759 9.64198 45.8319 9.24198C46.1039 8.84198 46.3919 8.40998 46.6959 7.94598C46.9999 7.46598 47.2959 7.00998 47.5839 6.57798C47.8879 6.12998 48.1519 5.74598 48.3759 5.42598C48.6159 5.10598 48.7919 4.89798 48.9039 4.80198C49.2559 4.57798 49.6479 4.46598 50.0799 4.46598C50.5119 4.44998 50.8559 4.57798 51.1119 4.84998C51.3199 5.07398 51.4319 5.32998 51.4479 5.61798C51.4799 5.90598 51.4479 6.20198 51.3519 6.50598C51.1439 7.19398 50.9999 7.83398 50.9199 8.42598C50.8399 9.01798 50.8079 9.42598 50.8239 9.64998C50.7599 9.79398 50.7039 9.95398 50.6559 10.13C50.6239 10.29 50.5999 10.434 50.5839 10.562C50.5839 10.722 50.5519 10.89 50.4879 11.066C50.4399 11.226 50.3759 11.338 50.2959 11.402C50.3439 11.546 50.3679 11.738 50.3679 11.978C50.3839 12.202 50.3759 12.41 50.3439 12.602C50.0879 14.234 49.9519 15.538 49.9359 16.514C49.9199 17.474 49.9759 18.17 50.1039 18.602C50.2319 19.018 50.3679 19.242 50.5119 19.274C50.5759 19.258 50.6079 19.282 50.6079 19.346C50.6239 19.41 50.6159 19.506 50.5839 19.634C50.5839 19.762 50.5199 19.906 50.3919 20.066C50.2799 20.242 50.1599 20.394 50.0319 20.522C49.9199 20.666 49.8479 20.762 49.8159 20.81C49.7199 20.97 49.6319 21.058 49.5519 21.074C49.4879 21.09 49.2799 21.05 48.9279 20.954ZM54.7963 19.73C54.6683 19.762 54.5003 19.778 54.2923 19.778C54.0843 19.762 53.9003 19.738 53.7403 19.706C53.5963 19.658 53.5243 19.61 53.5243 19.562C53.5243 19.482 53.4843 19.442 53.4043 19.442C53.4043 19.442 53.3163 19.378 53.1403 19.25C52.9643 19.106 52.8043 19.002 52.6603 18.938C52.5163 18.714 52.4203 18.458 52.3723 18.17C52.3403 17.866 52.4363 17.338 52.6603 16.586C52.6763 16.074 52.8203 15.538 53.0923 14.978C53.3643 14.402 53.7083 13.842 54.1243 13.298C54.5403 12.754 54.9723 12.274 55.4203 11.858C55.8683 11.426 56.2683 11.106 56.6203 10.898C56.8443 10.674 57.1403 10.554 57.5083 10.538C57.8923 10.522 58.2283 10.594 58.5163 10.754C58.6763 10.834 58.8523 10.994 59.0443 11.234C59.2363 11.474 59.4203 11.73 59.5963 12.002C59.7723 12.258 59.9083 12.49 60.0043 12.698C60.0523 12.874 60.0923 13.034 60.1243 13.178C60.1723 13.306 60.2043 13.466 60.2203 13.658C60.2363 13.85 60.2203 14.138 60.1723 14.522C60.0923 14.81 60.0203 15.106 59.9563 15.41C59.9083 15.698 59.8843 15.994 59.8843 16.298C59.8523 16.602 59.8843 16.818 59.9803 16.946C60.0923 17.074 60.2523 17.082 60.4603 16.97C60.6523 16.874 60.8523 16.866 61.0603 16.946C61.2683 17.01 61.4123 17.138 61.4923 17.33C61.5883 17.506 61.5643 17.738 61.4203 18.026C61.3243 18.234 61.1723 18.434 60.9643 18.626C60.7563 18.818 60.5243 18.978 60.2683 19.106C60.0123 19.218 59.7643 19.274 59.5243 19.274C59.3483 19.274 59.1723 19.21 58.9963 19.082C58.8203 18.938 58.6603 18.746 58.5163 18.506C58.3723 18.266 58.2523 18.002 58.1563 17.714L58.0123 17.162L57.1483 17.954C56.9403 18.178 56.7323 18.386 56.5243 18.578C56.3323 18.754 56.2123 18.882 56.1643 18.962C56.0843 19.106 55.9243 19.234 55.6843 19.346C55.4603 19.458 55.1643 19.586 54.7963 19.73ZM55.4443 17.426C55.7163 17.266 55.9483 17.074 56.1403 16.85C56.3483 16.626 56.5483 16.378 56.7403 16.106C56.9323 15.818 57.1403 15.514 57.3643 15.194C57.6363 14.826 57.8283 14.53 57.9403 14.306C58.0683 14.082 58.1643 13.842 58.2283 13.586C58.1643 13.41 58.0763 13.226 57.9643 13.034C57.8523 12.826 57.7403 12.714 57.6283 12.698C57.4043 12.698 57.1323 12.834 56.8123 13.106C56.5083 13.378 56.1723 13.77 55.8043 14.282C55.7403 14.362 55.6603 14.49 55.5643 14.666C55.4683 14.842 55.3723 15.01 55.2763 15.17C55.1963 15.314 55.1403 15.41 55.1083 15.458C55.0603 15.522 54.9883 15.674 54.8923 15.914C54.8123 16.138 54.7403 16.37 54.6763 16.61C54.6123 16.834 54.5803 16.994 54.5803 17.09C54.5803 17.186 54.5883 17.29 54.6043 17.402C54.6363 17.514 54.7163 17.586 54.8443 17.618C54.9723 17.65 55.1723 17.586 55.4443 17.426ZM63.5361 20.138C63.4081 20.09 63.2401 19.962 63.0321 19.754C62.8241 19.53 62.6401 19.29 62.4801 19.034C62.3201 18.762 62.2401 18.538 62.2401 18.362C62.3201 18.186 62.4241 17.874 62.5521 17.426C62.6961 16.978 62.8561 16.474 63.0321 15.914C63.1601 15.738 63.2561 15.538 63.3201 15.314C63.4001 15.074 63.4721 14.858 63.5361 14.666C63.6641 14.378 63.8081 14.05 63.9681 13.682C64.1281 13.314 64.2801 12.938 64.4241 12.554C64.5841 12.17 64.7281 11.834 64.8561 11.546C65.0801 11.066 65.2641 10.65 65.4081 10.298C65.5681 9.92998 65.7201 9.56998 65.8641 9.21798C66.0241 8.86598 66.1921 8.47398 66.3681 8.04198C66.6081 7.54598 66.8241 7.05798 67.0161 6.57798C67.2241 6.08198 67.4001 5.64198 67.5441 5.25798C67.7041 4.87398 67.8001 4.60198 67.8321 4.44198C67.8161 4.31398 67.8321 4.22598 67.8801 4.17798C67.9281 4.11398 67.9921 4.07398 68.0721 4.05798C68.1521 4.00998 68.2801 3.97798 68.4561 3.96198C68.6321 3.94598 68.7521 3.93798 68.8161 3.93798C69.0081 3.96998 69.2001 4.12998 69.3921 4.41798C69.6001 4.68998 69.7041 4.92198 69.7041 5.11398C69.7041 5.36998 69.5761 5.84998 69.3201 6.55398C69.0801 7.24198 68.7281 8.05798 68.2641 9.00198C67.7041 10.202 67.2801 11.13 66.9921 11.786C66.7201 12.442 66.5361 12.906 66.4401 13.178C66.3441 13.45 66.3041 13.626 66.3201 13.706C66.3201 13.706 66.3841 13.682 66.5121 13.634C66.6401 13.586 66.8321 13.474 67.0881 13.298C67.2641 13.186 67.4641 13.042 67.6881 12.866C67.9121 12.69 68.1281 12.53 68.3361 12.386C68.5601 12.242 68.7361 12.154 68.8641 12.122C68.9441 12.058 69.0561 11.978 69.2001 11.882C69.3441 11.786 69.4801 11.698 69.6081 11.618C69.9121 11.394 70.1521 11.322 70.3281 11.402C70.5041 11.482 70.6641 11.618 70.8081 11.81C70.9841 12.018 71.0481 12.242 71.0001 12.482C70.9681 12.706 70.7201 13.002 70.2561 13.37C69.9041 13.626 69.5281 13.874 69.1281 14.114C68.7281 14.338 68.3601 14.538 68.0241 14.714C67.7041 14.89 67.4721 15.034 67.3281 15.146C67.3281 15.146 67.4001 15.25 67.5441 15.458C67.6881 15.666 67.8241 15.866 67.9521 16.058C68.0801 16.314 68.2401 16.642 68.4321 17.042C68.6241 17.426 68.7681 17.698 68.8641 17.858C69.0401 18.114 69.2161 18.282 69.3921 18.362C69.5841 18.442 69.8641 18.418 70.2321 18.29C70.4721 18.226 70.6721 18.234 70.8321 18.314C71.0081 18.378 71.1521 18.49 71.2641 18.65C71.3281 18.778 71.3601 18.906 71.3601 19.034C71.3601 19.162 71.2561 19.314 71.0481 19.49C70.6001 19.794 70.1601 20.05 69.7281 20.258C69.3121 20.482 68.9121 20.466 68.5281 20.21C68.1921 19.954 67.8721 19.666 67.5681 19.346C67.2801 19.01 66.9521 18.602 66.5841 18.122C66.5841 18.058 66.5361 17.922 66.4401 17.714C66.3441 17.506 66.2801 17.386 66.2481 17.354C66.1841 17.226 66.1121 17.114 66.0321 17.018C65.9681 16.906 65.9361 16.85 65.9361 16.85C65.8881 16.674 65.8241 16.53 65.7441 16.418C65.6801 16.306 65.5921 16.242 65.4801 16.226C65.4161 16.274 65.3441 16.354 65.2641 16.466C65.1841 16.578 65.1041 16.714 65.0241 16.874C64.9281 17.114 64.8321 17.354 64.7361 17.594C64.6401 17.818 64.5601 18.066 64.4961 18.338C64.4321 18.594 64.3921 18.906 64.3761 19.274C64.3921 19.45 64.3201 19.642 64.1601 19.85C64.0001 20.042 63.7921 20.138 63.5361 20.138ZM73.8086 19.85C73.1846 19.594 72.7526 19.178 72.5126 18.602C72.2726 18.026 72.2086 17.258 72.3206 16.298C72.3526 15.802 72.3366 15.474 72.2726 15.314C72.2086 15.138 72.0886 14.97 71.9126 14.81C71.8646 14.746 71.7526 14.642 71.5766 14.498C71.4006 14.338 71.3206 14.218 71.3366 14.138C71.3206 14.026 71.3446 13.89 71.4086 13.73C71.4726 13.554 71.5286 13.458 71.5766 13.442C71.6886 13.394 71.8006 13.338 71.9126 13.274C72.0406 13.21 72.1366 13.194 72.2006 13.226C72.2646 13.226 72.3606 13.266 72.4886 13.346C72.6326 13.426 72.7046 13.498 72.7046 13.562C72.7686 13.674 72.8646 13.626 72.9926 13.418C73.1366 13.21 73.2886 12.946 73.4486 12.626C73.6086 12.37 73.8086 12.13 74.0486 11.906C74.2886 11.682 74.5286 11.482 74.7686 11.306C75.0246 11.114 75.2406 10.97 75.4166 10.874C75.4966 10.842 75.6486 10.794 75.8726 10.73C76.1126 10.666 76.3606 10.618 76.6166 10.586C76.8726 10.538 77.0646 10.522 77.1926 10.538C77.4806 10.554 77.7846 10.674 78.1046 10.898C78.4246 11.122 78.6726 11.33 78.8486 11.522C79.0566 11.666 79.1926 11.89 79.2566 12.194C79.3366 12.482 79.3686 12.786 79.3526 13.106C79.3366 13.426 79.2726 13.698 79.1606 13.922C79.1126 14.082 78.9446 14.306 78.6566 14.594C78.3686 14.882 78.0486 15.162 77.6966 15.434C77.3606 15.69 77.0726 15.866 76.8326 15.962C76.6246 16.01 76.3766 16.05 76.0886 16.082C75.8006 16.098 75.5286 16.098 75.2726 16.082C75.0326 16.05 74.8646 16.01 74.7686 15.962C74.6566 15.898 74.5606 15.922 74.4806 16.034C74.4166 16.13 74.3606 16.402 74.3126 16.85C74.2966 17.026 74.2966 17.178 74.3126 17.306C74.3446 17.434 74.3766 17.53 74.4086 17.594C74.5206 17.786 74.6326 17.93 74.7446 18.026C74.8566 18.106 75.0646 18.13 75.3686 18.098C75.6726 18.066 75.9766 17.882 76.2806 17.546C76.6006 17.194 76.8886 16.914 77.1446 16.706C77.2086 16.594 77.3446 16.522 77.5526 16.49C77.7766 16.442 78.0406 16.458 78.3446 16.538C78.5206 16.65 78.6006 16.826 78.5846 17.066C78.5846 17.306 78.4566 17.658 78.2006 18.122C78.1526 18.234 78.0166 18.402 77.7926 18.626C77.5846 18.834 77.3526 19.05 77.0966 19.274C76.8566 19.482 76.6566 19.634 76.4966 19.73C76.0166 19.986 75.5446 20.106 75.0806 20.09C74.6166 20.074 74.1926 19.994 73.8086 19.85ZM75.5846 14.45C75.8246 14.386 76.0246 14.322 76.1846 14.258C76.3606 14.194 76.5286 14.09 76.6886 13.946C76.8486 13.802 77.0326 13.586 77.2406 13.298C77.3046 13.122 77.3366 12.97 77.3366 12.842C77.3526 12.714 77.3446 12.634 77.3126 12.602C77.1846 12.474 77.0406 12.434 76.8806 12.482C76.7366 12.514 76.5766 12.594 76.4006 12.722C76.2886 12.77 76.1286 12.874 75.9206 13.034C75.7286 13.178 75.5366 13.346 75.3446 13.538C75.1686 13.714 75.0246 13.882 74.9126 14.042C74.8166 14.186 74.8006 14.274 74.8646 14.306C74.8326 14.37 74.9206 14.41 75.1286 14.426C75.3526 14.442 75.5046 14.45 75.5846 14.45Z" fill="white"/>
<g clip-path="url(#clip0_15_940)">
<path d="M89.5605 1.80035C87.8113 1.80035 86.7618 3.05973 86.7618 5.64845V11.4556C86.7618 13.4146 85.3625 14.1142 84.5229 13.6945C85.3625 13.2747 86.7618 13.9743 86.7618 15.9333V21.7405C86.7618 24.3292 87.8113 25.5886 89.5605 25.5886" stroke="white" stroke-width="1.32934" stroke-linecap="round" stroke-linejoin="round"/>
</g>
<path d="M93.594 21.1455C93.482 20.9695 93.29 20.8575 93.018 20.8095C92.746 20.7615 92.33 20.7535 91.77 20.7855C91.546 20.8175 91.314 20.8015 91.074 20.7375C90.834 20.6735 90.642 20.5775 90.498 20.4495C90.354 20.3215 90.298 20.1935 90.33 20.0655C90.346 19.8735 90.57 19.6655 91.002 19.4415C91.434 19.2175 91.994 19.0975 92.682 19.0815L93.69 19.0575L93.93 18.5775C93.994 18.4015 94.042 18.2095 94.074 18.0015C94.122 17.7935 94.202 17.5055 94.314 17.1375C94.378 16.9135 94.474 16.6015 94.602 16.2015C94.73 15.8015 94.866 15.3775 95.01 14.9295C95.154 14.4655 95.282 14.0495 95.394 13.6815C95.506 13.3135 95.578 13.0575 95.61 12.9135C95.674 12.7695 95.762 12.5295 95.874 12.1935C95.986 11.8415 96.09 11.4895 96.186 11.1375C96.298 10.7695 96.37 10.5055 96.402 10.3455C96.818 9.08147 97.09 8.20147 97.218 7.70547C97.346 7.19347 97.378 6.92947 97.314 6.91347C97.25 6.91347 97.098 6.92147 96.858 6.93747C96.618 6.95347 96.354 6.97747 96.066 7.00947C95.778 7.02547 95.522 7.04947 95.298 7.08147C95.074 7.11347 94.938 7.14547 94.89 7.17747C94.81 7.28947 94.674 7.27347 94.482 7.12947C94.29 6.96947 94.17 6.80947 94.122 6.64947C94.106 6.50547 94.106 6.36947 94.122 6.24147C94.138 6.11347 94.186 6.02547 94.266 5.97747C94.378 5.88147 94.61 5.77747 94.962 5.66547C95.314 5.53747 95.706 5.42547 96.138 5.32947C96.586 5.23347 96.994 5.16147 97.362 5.11347C97.634 5.08147 97.906 5.02547 98.178 4.94547C98.45 4.84947 98.666 4.73747 98.826 4.60947C98.97 4.56147 99.106 4.52147 99.234 4.48947C99.378 4.45747 99.522 4.44947 99.666 4.46547C99.794 4.54547 100.01 4.58547 100.314 4.58547C100.634 4.58547 100.97 4.57747 101.322 4.56147C102.218 4.48147 102.842 4.51347 103.194 4.65747C103.562 4.78547 103.802 4.96147 103.914 5.18547C103.994 5.48947 103.978 5.74547 103.866 5.95347C103.754 6.14547 103.562 6.23347 103.29 6.21747C103.146 6.24947 102.946 6.28147 102.69 6.31347C102.434 6.32947 102.098 6.34547 101.682 6.36147C100.626 6.45747 100.058 6.56947 99.978 6.69747C99.914 6.76147 99.858 6.82547 99.81 6.88947C99.778 6.95347 99.73 7.02547 99.666 7.10547C99.682 7.16947 99.642 7.36147 99.546 7.68147C99.466 7.98547 99.362 8.31347 99.234 8.66547C99.17 8.87347 99.074 9.16947 98.946 9.55347C98.818 9.93747 98.682 10.3375 98.538 10.7535C98.41 11.1535 98.29 11.5215 98.178 11.8575C98.066 12.1775 97.986 12.3935 97.938 12.5055C97.874 12.6495 97.818 12.8095 97.77 12.9855C97.738 13.1455 97.714 13.2655 97.698 13.3455C97.474 14.1295 97.282 14.7855 97.122 15.3135C96.978 15.8415 96.85 16.3055 96.738 16.7055C96.626 17.0895 96.522 17.4655 96.426 17.8335C96.33 18.1855 96.218 18.5855 96.09 19.0335C96.09 19.0335 96.226 19.0255 96.498 19.0095C96.77 18.9775 97.114 18.9455 97.53 18.9135C98.282 18.8335 98.794 18.7855 99.066 18.7695C99.338 18.7535 99.498 18.7775 99.546 18.8415C99.594 18.8895 99.642 18.9855 99.69 19.1295C100.01 19.5615 99.986 19.9215 99.618 20.2095C99.266 20.4975 98.642 20.6335 97.746 20.6175C96.914 20.6495 96.298 20.6735 95.898 20.6895C95.514 20.7215 95.266 20.7615 95.154 20.8095C95.042 20.8575 94.986 20.9375 94.986 21.0495C95.002 21.3055 94.842 21.4575 94.506 21.5055C94.186 21.5695 93.882 21.4495 93.594 21.1455ZM104.806 21.4335C104.518 21.4495 104.278 21.3135 104.086 21.0255C103.894 20.7375 103.806 20.4975 103.822 20.3055C103.838 20.0495 103.91 19.6815 104.038 19.2015C104.166 18.7215 104.31 18.2335 104.47 17.7375C104.63 17.2415 104.774 16.8495 104.902 16.5615C104.966 16.3055 105.022 16.0815 105.07 15.8895C105.134 15.6815 105.174 15.5455 105.19 15.4815C105.238 15.4175 105.31 15.2495 105.406 14.9775C105.518 14.7055 105.606 14.4415 105.67 14.1855C105.702 14.0575 105.766 13.8175 105.862 13.4655C105.974 13.0975 106.102 12.6735 106.246 12.1935C106.406 11.7135 106.558 11.2415 106.702 10.7775C106.862 10.3135 106.998 9.90547 107.11 9.55347C107.222 9.20147 107.294 8.96947 107.326 8.85747C107.454 8.66547 107.55 8.48147 107.614 8.30547C107.678 8.12947 107.718 8.00947 107.734 7.94547C107.83 7.88147 107.886 7.80147 107.902 7.70547C107.918 7.59347 107.926 7.50547 107.926 7.44147C107.926 7.36147 107.95 7.29747 107.998 7.24947C108.062 7.20147 108.094 7.14547 108.094 7.08147C108.158 7.03347 108.198 7.02547 108.214 7.05747C108.23 7.08947 108.278 7.06547 108.358 6.98547L108.478 6.16947L110.614 6.14547C110.582 6.33747 110.534 6.57747 110.47 6.86547C110.406 7.13747 110.254 7.50547 110.014 7.96947C109.934 8.28947 109.838 8.57747 109.726 8.83347C109.63 9.08947 109.59 9.25747 109.606 9.33747C109.574 9.36947 109.502 9.52947 109.39 9.81747C109.294 10.1055 109.174 10.4575 109.03 10.8735C108.902 11.2895 108.766 11.7055 108.622 12.1215C108.494 12.5375 108.374 12.9055 108.262 13.2255C108.166 13.5295 108.102 13.7215 108.07 13.8015C107.942 14.0575 107.798 14.4335 107.638 14.9295C107.478 15.4255 107.238 16.0975 106.918 16.9455C106.79 17.2015 106.63 17.5855 106.438 18.0975C106.262 18.6095 106.118 19.0735 106.006 19.4895C105.83 20.1135 105.67 20.5615 105.526 20.8335C105.398 21.1055 105.278 21.2655 105.166 21.3135C105.054 21.3775 104.934 21.4175 104.806 21.4335ZM105.022 7.32147C104.366 7.38547 103.918 7.30547 103.678 7.08147C103.454 6.85747 103.374 6.61747 103.438 6.36147C103.486 6.16947 103.598 6.00947 103.774 5.88147C103.966 5.73747 104.31 5.61747 104.806 5.52147C104.982 5.48947 105.206 5.44947 105.478 5.40147C105.766 5.35347 106.038 5.30547 106.294 5.25747C106.822 5.19347 107.254 5.13747 107.59 5.08947C107.942 5.04147 108.302 5.00147 108.67 4.96947C109.038 4.93747 109.502 4.90547 110.062 4.87347C110.526 4.84147 110.918 4.81747 111.238 4.80147C111.574 4.76947 111.742 4.75347 111.742 4.75347C111.79 4.75347 111.958 4.76947 112.246 4.80147C112.534 4.83347 112.846 4.87347 113.182 4.92147C113.518 4.96947 113.766 5.02547 113.926 5.08947C114.294 5.16947 114.59 5.31347 114.814 5.52147C115.038 5.72947 115.182 5.96947 115.246 6.24147C115.294 6.43347 115.294 6.58547 115.246 6.69747C115.198 6.79347 115.11 6.87347 114.982 6.93747C114.614 7.04947 114.31 7.14547 114.07 7.22547C113.846 7.28947 113.622 7.28147 113.398 7.20147C113.318 7.12147 113.222 7.04947 113.11 6.98547C113.014 6.92147 112.838 6.87347 112.582 6.84147C112.342 6.79347 111.958 6.75347 111.43 6.72147C110.982 6.76947 110.59 6.79347 110.254 6.79347C109.918 6.79347 109.75 6.83347 109.75 6.91347L108.334 6.98547L107.158 7.10547C106.998 7.12147 106.774 7.14547 106.486 7.17747C106.198 7.19347 105.918 7.21747 105.646 7.24947C105.374 7.26547 105.166 7.28947 105.022 7.32147Z" fill="#22D3EE"/>
<g clip-path="url(#clip1_15_940)">
<path d="M116.939 1.80035C118.688 1.80035 119.738 3.05973 119.738 5.64845V11.4556C119.738 13.4146 121.137 14.1142 121.976 13.6945C121.137 13.2747 119.738 13.9743 119.738 15.9333V21.7405C119.738 24.3292 118.688 25.5886 116.939 25.5886" stroke="white" stroke-width="1.32934" stroke-linecap="round" stroke-linejoin="round"/>
</g>
<defs>
<clipPath id="clip0_15_940">
<rect width="6.99653" height="25.9896" fill="white" transform="translate(83.2637)"/>
</clipPath>
<clipPath id="clip1_15_940">
<rect width="6.99653" height="25.9896" fill="white" transform="translate(116.239)"/>
</clipPath>
</defs>
</svg>
